<svg xmlns="http://www.w3.org/2000/svg" width="81.936" height="80.658" viewBox="0 0 81.936 80.658">
  <g id="Group_12573" data-name="Group 12573" transform="translate(919.685 -743.964)">
    <path id="Path_22516" data-name="Path 22516" d="M-919.685,764.214v-9.1a63.975,63.975,0,0,0,18.171-1.96,51.028,51.028,0,0,0,17.244-8.542,2.073,2.073,0,0,1,2.847-.155,63.409,63.409,0,0,0,9.518,5.205c1.084.478.949.961.412,1.773-.262.4-.549.794-.8,1.208-1.453,2.427-1.462,2.448-4.038,1.023-1.848-1.022-3.69-2.063-5.479-3.184a1.556,1.556,0,0,0-2.081.061,45.346,45.346,0,0,1-22.726,9.163,57.854,57.854,0,0,1-6.18.167c-.743,0-1.259-.018-1.263.985-.076,15.281,1.722,30.088,11.086,42.913a42.079,42.079,0,0,0,19.159,14.445,3.109,3.109,0,0,0,2.582-.221c13.716-5.8,22.366-16.094,26.658-30.188.416-1.365.911-1.965,2.395-1.872a19.907,19.907,0,0,0,3.561-.421,59.8,59.8,0,0,1-4.972,13.6c-6.088,11.943-15.495,20.23-27.888,25.226a3.187,3.187,0,0,1-2.575.024c-16.487-6.384-26.543-18.524-31.657-35.141a100.941,100.941,0,0,1-3.587-19.39" transform="translate(0)" fill="#00c6d8"/>
    <path id="Path_22517" data-name="Path 22517" d="M-766.089,755.532a15.841,15.841,0,0,1,15.644,15.851,15.889,15.889,0,0,1-15.9,15.794A15.9,15.9,0,0,1-781.995,771.3,15.862,15.862,0,0,1-766.089,755.532Zm8.973,7.426c-4.116-.518-4.125-.525-6.446,2.46-1.375,1.769-2.811,3.5-4.039,5.371-.754,1.147-1.167,1.328-2.214.283a4.628,4.628,0,0,0-4.287-1.464c-.666.145-2.083.591-.8,1.605a24.01,24.01,0,0,1,6.494,8.647A90.157,90.157,0,0,1-757.116,762.958Z" transform="translate(-87.304 -7.335)" fill="#66dc65"/>
    <path id="Path_22519" data-name="Path 22519" d="M-745.725,775.372a90.154,90.154,0,0,0-11.294,16.9,24.011,24.011,0,0,0-6.494-8.647c-1.28-1.014.137-1.46.8-1.6a4.627,4.627,0,0,1,4.287,1.464c1.047,1.045,1.46.864,2.214-.283,1.228-1.868,2.664-3.6,4.039-5.371C-749.85,774.847-749.841,774.854-745.725,775.372Z" transform="translate(-98.695 -19.749)" fill="#fafafa"/>
    <path id="Union_75" data-name="Union 75" d="M21.948,33.26h-.218a24.3,24.3,0,0,1-7.964-1.706,21.293,21.293,0,0,0-2.548-.777,2.609,2.609,0,0,1-2.6,2.484H2.605A2.608,2.608,0,0,1,0,30.657V14.627a2.608,2.608,0,0,1,2.605-2.6H8.617a2.6,2.6,0,0,1,1.871.794l.023-.009A15.728,15.728,0,0,0,13.37,9.621a28.171,28.171,0,0,1,2.057-2.483A5.008,5.008,0,0,0,16.3,4.7a10.538,10.538,0,0,1,.959-2.969A2.879,2.879,0,0,1,19.819,0a5.49,5.49,0,0,1,4.458,1.76,7.076,7.076,0,0,1,1.335,4.67,8.435,8.435,0,0,1-.926,3.77h3.422a5.088,5.088,0,0,1,3.661,1.569,5.186,5.186,0,0,1,1.493,3.577,5.713,5.713,0,0,1-.916,3.278,6.548,6.548,0,0,1-.62,4.334,5.84,5.84,0,0,1-1.164,4.288,5.9,5.9,0,0,1-1.539,4.261A6.362,6.362,0,0,1,24.3,33.26H21.948Zm-2.5-27.952a7.4,7.4,0,0,1-1.75,4.1,24.712,24.712,0,0,0-1.971,2.38c-1.4,1.833-2.844,3.722-4.5,4.1V27.538a18.128,18.128,0,0,1,3.707,1.021,20.757,20.757,0,0,0,6.8,1.495h2.544a3.218,3.218,0,0,0,2.527-.891,3.51,3.51,0,0,0,.467-2.858l-.067-.421.376-.2a2.137,2.137,0,0,0,.89-1.292,2.262,2.262,0,0,0-.183-1.753l-.328-.551.572-.292a1.944,1.944,0,0,0,.723-1.571,2.341,2.341,0,0,0-.453-1.833l-1.012-.737L29,17.325c.32-.087,1.066-.454,1.058-1.967a2.036,2.036,0,0,0-1.948-1.952H20.493v-.6a7.11,7.11,0,0,1,1.008-3.4,6.248,6.248,0,0,0,.9-2.975A4.986,4.986,0,0,0,22.076,4.2a2.176,2.176,0,0,0-1.983-.986A5.944,5.944,0,0,0,19.444,5.308ZM3.206,30.056h4.81V15.228H3.206Zm.3-2.4a2.1,2.1,0,1,1,2.1,2.1A2.106,2.106,0,0,1,3.506,27.651Z" transform="translate(-900.12 766.694)" fill="#ff405a"/>
  </g>
</svg>
