<svg xmlns="http://www.w3.org/2000/svg" width="99.14" height="79.313" viewBox="0 0 99.14 79.313">
  <path id="Path_23214" data-name="Path 23214" d="M12.392,118.775H2.478a2.478,2.478,0,1,1,0-4.957h9.914a2.478,2.478,0,1,1,0,4.957m4.962,14.869a2.479,2.479,0,0,1,1.1,4.7L8.543,143.3a2.479,2.479,0,1,1-2.217-4.435l9.914-4.957a2.522,2.522,0,0,1,1.109-.262h.005m2.473-37.176a2.48,2.48,0,0,1-2.478,2.478,2.523,2.523,0,0,1-1.109-.262L6.326,93.728a2.478,2.478,0,0,1,2.217-4.433l9.914,4.957a2.474,2.474,0,0,1,1.37,2.217M49.58,89.046a27.242,27.242,0,0,1,20.5,45.186c-3.94,4.5-7.774,11.851-8.121,14.285l-.009,11.646a2.513,2.513,0,0,1-.418,1.368l-3.795,5.709a2.473,2.473,0,0,1-2.063,1.107H43.46a2.476,2.476,0,0,1-2.062-1.107L37.6,161.532a2.451,2.451,0,0,1-.417-1.368l-.009-11.648c-.336-2.372-4.148-9.758-8.124-14.285a27.249,27.249,0,0,1,20.516-45.2c.005,0,.005.012.011.012m16.778,41.919A22.3,22.3,0,1,0,27.273,116.3l0,.032a22.141,22.141,0,0,0,5.5,14.635,52.805,52.805,0,0,1,7.839,12.593H58.528a52.752,52.752,0,0,1,7.834-12.593ZM52.048,101.426a2.48,2.48,0,0,1-2.478,2.478A12.414,12.414,0,0,0,37.177,116.3a2.478,2.478,0,0,1-4.957,0A17.38,17.38,0,0,1,49.569,98.947a2.48,2.48,0,0,1,2.478,2.478M57,148.516H42.124l.009,4.957H57Zm0,9.915H42.143v.977l2.642,3.98h9.562L57,159.408ZM81.788,98.949a2.48,2.48,0,0,1-1.108-4.7L90.6,89.294a2.478,2.478,0,1,1,2.217,4.433L82.9,98.685a2.517,2.517,0,0,1-1.108.262Zm12.394,42.132A2.481,2.481,0,0,1,90.6,143.3l-9.915-4.957a2.479,2.479,0,0,1,2.219-4.435l9.914,4.957a2.471,2.471,0,0,1,1.369,2.216M99.14,116.3a2.48,2.48,0,0,1-2.478,2.478H86.748a2.478,2.478,0,1,1,0-4.957h9.914A2.48,2.48,0,0,1,99.14,116.3" transform="translate(0 -89.032)" fill="#00c6d8"/>
</svg>
