<svg xmlns="http://www.w3.org/2000/svg" width="108.331" height="79.251" viewBox="0 0 108.331 79.251">
  <g id="Group_13366" data-name="Group 13366" transform="translate(-666.835 -996.375)">
    <path id="Path_23217" data-name="Path 23217" d="M347.462,129.9c-.116.3-11.48,30.13-49.377,30.13S248.826,130.2,248.711,129.9a3.363,3.363,0,0,1,1.945-4.216,4.09,4.09,0,0,1,1.664-.354h.007c.012,0,.023,0,.038,0a3.927,3.927,0,0,1,3.106,1.521c.13.154,3.7,4.808,13.322,8.579,1.579-10.87,6.733-39.838,16.851-39.838a9.88,9.88,0,0,1,6.368,2.7,9.156,9.156,0,0,0,12.149,0,9.877,9.877,0,0,1,6.368-2.7c10.1,0,15.263,28.926,16.854,39.841,9.707-3.807,13.255-8.511,13.312-8.587a3.99,3.99,0,0,1,3.114-1.487h.058a4.041,4.041,0,0,1,1.678.363,3.351,3.351,0,0,1,1.917,4.18m-8.34,4.96c-6.382,4.485-18.932,10.3-41.037,10.3s-34.593-5.731-41.016-10.26c5.46,7.97,17.639,20.174,41.016,20.174s35.576-12.223,41.037-20.212m-65.568,2.207a97.621,97.621,0,0,0,49.063,0c-.323-2.366-.68-4.571-1.051-6.7a94.5,94.5,0,0,1-23.479,2.7,94.078,94.078,0,0,1-23.479-2.71c-.377,2.132-.728,4.347-1.054,6.709m1.975-11.617a97.006,97.006,0,0,0,45.114,0c-3.4-16.574-7.958-24.908-10.114-24.908a5.116,5.116,0,0,0-3.136,1.5,14.111,14.111,0,0,1-18.613,0,5.123,5.123,0,0,0-3.136-1.5c-2.156,0-6.714,8.332-10.115,24.9" transform="translate(422.484 908.412)" fill="#00c6d8"/>
    <g id="Group_13365" data-name="Group 13365" transform="translate(442.664 262.76)">
      <line id="Line_10" data-name="Line 10" y1="76" x2="106" transform="translate(225.336 735.24)" fill="none" stroke="#ff405a" stroke-width="4"/>
      <line id="Line_11" data-name="Line 11" x1="106" y1="76" transform="translate(225.336 735.24)" fill="none" stroke="#ff405a" stroke-width="4"/>
    </g>
  </g>
</svg>
