<svg xmlns="http://www.w3.org/2000/svg" width="91.578" height="91.578" viewBox="0 0 91.578 91.578">
  <path id="Path_26372" data-name="Path 26372" d="M-801.786,990.454v22.894a8.589,8.589,0,0,1-8.585,8.585h-62.96a8.589,8.589,0,0,1-8.585-8.585V950.39a8.589,8.589,0,0,1,8.585-8.585h28.617a2.864,2.864,0,0,1,2.862,2.862v5.724a2.864,2.864,0,0,1-2.862,2.862H-870.47v57.235h57.237V990.454a2.862,2.862,0,0,1,2.862-2.862h5.724A2.863,2.863,0,0,1-801.786,990.454Zm11.447-53.42v28.38a5.011,5.011,0,0,1-5.008,5.008h-3.2a5.011,5.011,0,0,1-5.008-5.008v-.139l.337-12.023-44.2,44.521a4.281,4.281,0,0,1-3.04,1.262,4.274,4.274,0,0,1-3.024-1.248l-.011-.009-4.282-4.266a4.28,4.28,0,0,1-1.259-3.035,4.281,4.281,0,0,1,1.259-3.037l.009-.009,44.527-44.195-12.023.339c-.047,0-.094,0-.142,0a5.007,5.007,0,0,1-5.005-4.863v-3.346a5.011,5.011,0,0,1,5.008-5.01h28.38A6.68,6.68,0,0,1-790.339,937.034Z" transform="translate(881.917 -930.356)"/>
</svg>
