<svg xmlns="http://www.w3.org/2000/svg" width="291.261" height="281.716" viewBox="0 0 291.261 281.716">
  <g id="Group_14050" data-name="Group 14050" transform="translate(-717.575 -761.322)">
    <g id="Group_14049" data-name="Group 14049" transform="translate(717.575 761.322)">
      <path id="Path_24382" data-name="Path 24382" d="M881,900.817c-8.33-.59-12.487-1.754-14.625-2.86a4.439,4.439,0,0,1-2.447-2.447s-4.95,43.563-1.707,58c1.769,7.887,4.2,22.926,7.427,35.163a.045.045,0,0,1,.015.029c2.683,10.143,4.865,18.192,4.865,18.192h-55.58V899.417c3.907,13.991,6.678,24.767,6.678,24.767-.074-11.219,2.506-55.019,3.833-76.47,1.887-4.791,3.612-8.418,5-10.172.472.162.958.339,1.489.5a39.13,39.13,0,0,0,7.46,2.919c2.919.84,8.256,2.093,13.622,3.907,5.838,1.961,11.706,4.585,14.521,8.005,3.582,4.364,13.946,24.546,15.627,37.3C888.043,896.645,886.657,901.215,881,900.817Z" transform="translate(-669.5 -725.174)" fill="#2b363c"/>
      <path id="Path_24383" data-name="Path 24383" d="M829.455,844.442c-1.327,21.45-3.907,65.251-3.833,76.47,0,0-2.772-10.777-6.678-24.767V875.962C822.409,864.389,826.183,852.683,829.455,844.442Z" transform="translate(-669.5 -721.902)" fill="#2b363c"/>
      <path id="Path_24384" data-name="Path 24384" d="M830.953,838.129c-.531-.162-1.017-.339-1.489-.5.074-.1.147-.177.221-.265A14.3,14.3,0,0,0,830.953,838.129Z" transform="translate(-664.511 -725.26)" fill="#2b363c"/>
      <path id="Path_24385" data-name="Path 24385" d="M819.934,841.965s-7.784.935-10.475,7.27,6.288,80.291,20.951,74.694,16.345-63.654,6.95-70.975S827.866,838.3,819.934,841.965Z" transform="translate(-674.223 -723.539)" fill="#dbdbdb"/>
      <path id="Path_24386" data-name="Path 24386" d="M816.906,847.666c-.183.587-2.842,47.563.921,76.552s7.507-26.953,7.507-26.953l-4.716-49.856Z" transform="translate(-670.98 -720.495)" fill="#b51a1a"/>
      <path id="Path_24387" data-name="Path 24387" d="M842.839,899.3v107.474H781.451s10.6-39.2,13.843-53.634-3.243-57.747-3.243-57.747a4.439,4.439,0,0,1-2.447,2.447c-2.138,1.106-6.3,2.27-14.625,2.86-16.792,1.18,4.054-41.353,9.45-47.943s23.839-9.229,29.928-10.983,7.18-3.981,7.18-3.981c3.774,4.349,9.922,22.689,15.495,41.324C839.094,886.03,841.085,892.988,842.839,899.3Z" transform="translate(-693.395 -725.056)" fill="#2b363c"/>
      <path id="Path_24388" data-name="Path 24388" d="M831.072,838.125c-1.386,1.754-3.111,5.381-5,10.172.442-7.283.737-11.986.737-11.986A19.1,19.1,0,0,0,831.072,838.125Z" transform="translate(-666.118 -725.758)" fill="#ef4136"/>
      <path id="Path_24389" data-name="Path 24389" d="M834.581,923.612s2.063,73.268,2.947,82.7H832.6s2.3-76.607,0-80.144-19.372-22.54-19.378-29.022,2.35-17.342,1.613-18.026-11.933-1.564-12.375-5.617-2.424-32.379-2.424-32.379l4.486-2.368,29.28,82.648Z" transform="translate(-678.465 -724.599)" fill="#1c2426"/>
      <path id="Path_24390" data-name="Path 24390" d="M832.643,837.542l-9.173,86.645.086,3c3.392-7.824,11.4-29.646,11.7-31.529.441-2.8-4.126-13.954-2.652-15.963s7.808-9.229,7.955-10.408-5.846-30.936-5.846-30.936Z" transform="translate(-667.353 -725.174)" fill="#1c2426"/>
      <path id="Path_24391" data-name="Path 24391" d="M831.013,823.029a35.852,35.852,0,0,0-.867,7.427,84.472,84.472,0,0,0,.9,13.568s-6.292,11.185-12.658,11.928c-4.986.582-10.581-9.126-9.472-9.758,1.639-.938,1.71-9.1,1.557-14.679-.08-2.985-.224-5.226-.224-5.226S833.027,814.843,831.013,823.029Z" transform="translate(-674.325 -733.456)" fill="#ffc5b8"/>
      <path id="Path_24392" data-name="Path 24392" d="M829.975,830.745s-6.283,9.369-10.253,9.337-9.494-6.906-9.494-6.906l-.92,10.249s1.121,9.6,12.335,4.234,8.477-14.693,8.477-14.693Z" transform="translate(-674.07 -728.398)" fill="#e98970"/>
      <path id="Path_24393" data-name="Path 24393" d="M830.539,823.029a35.852,35.852,0,0,0-.867,7.427c-8.944,3.5-19.677,1.059-19.677,1.059-.08-2.985-.224-5.226-.224-5.226S832.553,814.843,830.539,823.029Z" transform="translate(-673.85 -733.456)" fill="#e98970"/>
      <g id="Group_14043" data-name="Group 14043" transform="translate(103.354)">
        <path id="Path_24394" data-name="Path 24394" d="M866.676,822.483c-3.862,5.484-7.828,3.951-7.828,3.951a38.855,38.855,0,0,1-5.573,13.062c-4.039,5.6-10.733,12.089-24.709,12.59-9.052-.324-15.038-3.155-19.239-6.664a30.525,30.525,0,0,1-5.455-5.927,38.858,38.858,0,0,1-5.573-13.062s-3.966,1.533-7.828-3.951-1.076-15.495,3.347-15.76c4.069-.266,8.33-25.977,16.07-29.81h.015a4.179,4.179,0,0,1,1.961-.472c.546.015,1.165.015,1.828.029,3.479.044,8.212.118,12.885.192h.1c.634.015,1.268.015,1.887.03,4.6-.074,9.45-.147,13.254-.206.575,0,1.12-.015,1.636-.015.663-.015,1.283-.015,1.828-.029,9.008-.1,13.637,30,18.045,30.281S870.524,817,866.676,822.483Z" transform="translate(-787.223 -754.152)" fill="#ffc5b8"/>
        <path id="Path_24395" data-name="Path 24395" d="M860.4,815.471c-.324-.177-10.865-6.266-16.939-14.861-4.246-6.015-.192-13.7-7.754-15.008-3.568-.619-16.659.236-23.485,6.885-6.87,6.708-9.022,37.137-2.89,52.926a30.525,30.525,0,0,1-5.455-5.927,38.859,38.859,0,0,1-5.573-13.062s-3.966,1.533-7.828-3.951-1.076-15.495,3.347-15.76c4.069-.265,8.33-25.976,16.07-29.81h.015c3.288-.059,9.878-.147,16.674-.251h.1c5.455-.074,11.042-.147,15.126-.192l.015.015c3.273,4.1,5.145,8.477,5.1,10.821C846.862,790.35,860,814.7,860.4,815.471Z" transform="translate(-787.223 -754.142)" fill="#e98970" opacity="0.49"/>
        <path id="Path_24396" data-name="Path 24396" d="M839.2,785.4s-3.817,5.486-13.177,2.6-17.579,1.351-27.563,7.808-1.756-31.253,13.012-31.981S836.974,774.984,839.2,785.4Z" transform="translate(-784.648 -760.146)" fill="#3d0b01"/>
        <path id="Path_24397" data-name="Path 24397" d="M836.87,787.671s-4.592,2.232-11.109-4.359-21.023-1.377-30.356,6.512c0,0,2.378-19.908,9.886-23.936s18.132-6.08,24.421,2.061a56.628,56.628,0,0,1,8.856,18.141Z" transform="translate(-784.018 -760.833)" fill="#4c2409"/>
        <path id="Path_24398" data-name="Path 24398" d="M840.686,785.989c-.348-1.094-35.073-34.081-49.746,6.3,0,0,3.839-22.183,15.347-26.518s23.394-4.915,27.247,2.276,10.329,16.529,9.954,19.331S840.686,785.989,840.686,785.989Z" transform="translate(-786.135 -760.732)" fill="#6d3713"/>
        <path id="Path_24399" data-name="Path 24399" d="M851.186,777.27c1.542,12.323-8.955,9.307-8.955,9.307s-.451-.653-1.262-1.723c-2.518-3.314-8.513-10.64-15.378-15.049l0-.006c-5.452-3.5-11.451-5.155-16.695-1.514-12.547,8.716,8.032,29.4-7.191,49.357l-.007.007a39.982,39.982,0,0,1-6.79,6.841c.04-.262,1.572-10.842-5.574-25.438-7.234-14.784,10.668-37.17,27.89-37.687,10.949-.327,21.085,1.209,27.408,5.54l0,0a16.067,16.067,0,0,1,4.219,4.118A13.908,13.908,0,0,1,851.186,777.27Z" transform="translate(-787.681 -761.322)" fill="#87461b"/>
        <path id="Path_24400" data-name="Path 24400" d="M835.1,774.6c1.542,12.323-10.193,8.856-10.193,8.856s-.339-1.987-.643-4.421c-.619-6.656,3.849-9.748,7.262-11.131C832.757,769.7,834.8,772.219,835.1,774.6Z" transform="translate(-770.357 -758.201)" fill="#6d3713"/>
        <path id="Path_24401" data-name="Path 24401" d="M854.749,798.689c-.64,1.909-1.263,3.5-1.85,4.822-2.07,4.675-3.647,5.953-3.647,5.953-7.376-.745-5.926,8.259-5.926,8.259s-2.627-2.251-5.819-5.543v0c-5.1-5.266-11.645-13.2-11.181-18.841.752-9.182-1.5-6.577-1.639-11.7s3.3-7.11,3.3-7.11,3.643-2.947,11.243-2.783C849.44,771.962,857.647,790.018,854.749,798.689Z" transform="translate(-770.133 -756.383)" fill="#87461b"/>
        <path id="Path_24402" data-name="Path 24402" d="M848.9,793.48c-2.07,4.675-3.647,5.953-3.647,5.953-7.376-.745-5.926,8.259-5.926,8.259s-2.627-2.251-5.819-5.543v0C830.151,789.511,848.9,793.48,848.9,793.48Z" transform="translate(-766.138 -746.351)" fill="#6d3713"/>
        <path id="Path_24403" data-name="Path 24403" d="M821.077,768.616c-5.452-3.5-11.451-5.156-16.695-1.514-12.547,8.716,8.032,29.4-7.191,49.357,9.073-13.046-5.007-41.5,4.768-49.478C811.606,759.107,820.837,768.372,821.077,768.616Z" transform="translate(-783.171 -760.14)" fill="#a34926"/>
        <path id="Path_24404" data-name="Path 24404" d="M817.2,801.964s-5.178,12.264-3.64,13.842,6.96.941,6.96.941-4.722.029-5.086-3.3C815.069,810.142,817.2,801.964,817.2,801.964Z" transform="translate(-775.544 -742.047)" fill="#e98970"/>
        <path id="Path_24405" data-name="Path 24405" d="M803.512,798.467a15.257,15.257,0,0,1,2.331-1.729,17.12,17.12,0,0,1,2.6-1.311,13.881,13.881,0,0,1,1.392-.464,10.009,10.009,0,0,1,1.449-.279,6.608,6.608,0,0,1,1.479,0,4.108,4.108,0,0,1,1.4.413,5.693,5.693,0,0,0-1.417-.1,8.306,8.306,0,0,0-1.389.184q-.686.151-1.355.364c-.447.145-.889.305-1.328.478-.877.348-1.741.74-2.6,1.156S804.376,798.03,803.512,798.467Z" transform="translate(-780.173 -745.52)" fill="#231f20"/>
        <path id="Path_24406" data-name="Path 24406" d="M820.335,795.367a5.971,5.971,0,0,1,1.225-.817,9.058,9.058,0,0,1,1.371-.565,10.084,10.084,0,0,1,2.934-.457,10.834,10.834,0,0,1,2.94.388,10.7,10.7,0,0,1,2.7,1.147,27.785,27.785,0,0,0-2.813-.655,16.133,16.133,0,0,0-2.825-.239,14.223,14.223,0,0,0-2.811.3,12.988,12.988,0,0,0-1.378.367A10.41,10.41,0,0,0,820.335,795.367Z" transform="translate(-772.194 -746.048)" fill="#231f20"/>
        <path id="Path_24407" data-name="Path 24407" d="M828.583,816.558a21.623,21.623,0,0,1-19.686,1.558A32.755,32.755,0,0,0,828.583,816.558Z" transform="translate(-777.619 -735.126)" fill="#e98970"/>
        <g id="Group_14041" data-name="Group 14041" transform="translate(27.465 57.719)">
          <path id="Path_24408" data-name="Path 24408" d="M809.381,801.481a1.483,1.483,0,0,0-1.623-.985c-.746.14-1.536.936-1.439,3.745.152,4.32,3.117,2.558,3.348.054A6.386,6.386,0,0,0,809.381,801.481Z" transform="translate(-806.31 -800.473)"/>
          <circle id="Ellipse_846" data-name="Ellipse 846" cx="0.615" cy="0.615" r="0.615" transform="translate(0.588 1.056)" fill="#fff"/>
        </g>
        <g id="Group_14042" data-name="Group 14042" transform="translate(51.827 57.719)">
          <path id="Path_24409" data-name="Path 24409" d="M825.906,801.481a1.484,1.484,0,0,0-1.623-.985c-.746.14-1.538.936-1.439,3.745.15,4.32,3.117,2.558,3.348.054A6.409,6.409,0,0,0,825.906,801.481Z" transform="translate(-822.835 -800.473)"/>
          <circle id="Ellipse_847" data-name="Ellipse 847" cx="0.615" cy="0.615" r="0.615" transform="translate(0.67 1.366)" fill="#fff"/>
        </g>
      </g>
      <path id="Path_24410" data-name="Path 24410" d="M812.923,835.32s7.385,8.35,9.63,10.8c0,0,7.107-5.952,10.476-12.7,0,0,.42-.756.862.274a19.344,19.344,0,0,0,8.054,6.925c4.174,1.768-3.291,15.912-3.291,15.912s-9.969-11.23-16.1-10.411c0,0-3.246,0-6,4.517s-5.794,9.233-5.794,9.233l-7.3-17.147s4.371-4.551,6.266-6.572C812.078,833.65,812.371,834.73,812.923,835.32Z" transform="translate(-676.841 -727.254)" fill="#fff"/>
      <path id="Path_24411" data-name="Path 24411" d="M806.394,837.787s-4.635,2.555-5.665,2.654,1.572,34.179,2.946,34.768,12.573,2.21,12.72,3.537-3.341,19.1-2.456,20.478,20.429,24.849,20.429,24.849S817.021,852.96,806.394,837.787Z" transform="translate(-678.251 -725.058)" fill="#3d4f53"/>
      <path id="Path_24412" data-name="Path 24412" d="M828.046,836.479l-4.576,88.463s8.987-24.406,11.05-28.974c0,0-4.42-15.489-3.83-15.257s8.4-9.788,8.545-10.967-5.77-31.723-5.77-31.723S827.884,834.692,828.046,836.479Z" transform="translate(-667.353 -725.928)" fill="#3d4f53"/>
      <path id="Path_24413" data-name="Path 24413" d="M791.15,938.228c3.243-14.439-3.239-57.751-3.239-57.751s7.856-13.161,7.759-11,6.273,52.752,7.255,62.969.307,59.407.307,59.407H777.3S787.911,952.665,791.15,938.228Z" transform="translate(-689.249 -710.142)" fill="#1c2426"/>
      <path id="Path_24414" data-name="Path 24414" d="M814.458,846.915c.018.1,1.451,3.792,2.356,4.339s3.574.177,5.111-.709,1.328-6.351,1.328-6.351-2.612-3.2-5.816-2.177S813.929,843.78,814.458,846.915Z" transform="translate(-671.726 -723.147)" fill="#ca2722"/>
      <path id="Path_24415" data-name="Path 24415" d="M806.394,837.787s-4.635,2.555-5.665,2.654,1.572,34.179,2.946,34.768,12.573,2.21,12.72,3.537-3.341,19.1-2.456,20.478,20.429,24.849,20.429,24.849S817.021,852.96,806.394,837.787Z" transform="translate(-678.251 -725.058)" fill="#3d4f53"/>
      <path id="Path_24416" data-name="Path 24416" d="M828.046,836.479l-4.576,88.463s8.987-24.406,11.05-28.974c0,0-4.42-15.489-3.83-15.257s8.4-9.788,8.545-10.967-5.77-31.723-5.77-31.723S827.884,834.692,828.046,836.479Z" transform="translate(-667.353 -725.928)" fill="#3d4f53"/>
      <circle id="Ellipse_848" data-name="Ellipse 848" cx="2.603" cy="2.603" r="2.603" transform="translate(147.768 203.236)" fill="#1c2426"/>
      <circle id="Ellipse_849" data-name="Ellipse 849" cx="2.603" cy="2.603" r="2.603" transform="translate(147.768 231.523)" fill="#1c2426"/>
      <circle id="Ellipse_850" data-name="Ellipse 850" cx="2.603" cy="2.603" r="2.603" transform="translate(147.768 259.809)" fill="#1c2426"/>
      <g id="Group_14044" data-name="Group 14044" transform="translate(0 278.175)">
        <rect id="Rectangle_6826" data-name="Rectangle 6826" width="160.402" height="3.535" rx="0.718" transform="translate(65.103)" fill="#fff"/>
        <rect id="Rectangle_6827" data-name="Rectangle 6827" width="58.592" height="3.535" rx="0.718" transform="translate(232.669)" fill="#fff"/>
        <rect id="Rectangle_6828" data-name="Rectangle 6828" width="58.592" height="3.535" rx="0.718" fill="#fff"/>
      </g>
      <g id="Group_14046" data-name="Group 14046" transform="translate(71.314 142.788)">
        <g id="Group_14045" data-name="Group 14045">
          <rect id="Rectangle_6829" data-name="Rectangle 6829" width="148.632" height="91.337" fill="#fff" stroke="#000" stroke-width="1.305"/>
        </g>
        <text id="_0888" data-name="0888" transform="translate(72.442 60.639)" fill="#22263d" font-size="42" font-family="RobotoSlab-Bold, Roboto Slab" font-weight="700" letter-spacing="0.1em"><tspan x="-52" y="0">0888</tspan></text>
      </g>
      <g id="Group_14047" data-name="Group 14047" transform="translate(60.244 162.258)">
        <path id="Path_24417" data-name="Path 24417" d="M768.545,879.792s-8.728.419-10-2.788,8.769-4.62,9.97-5.621Z" transform="translate(-758.439 -871.383)" fill="#ffc5b8"/>
        <path id="Path_24418" data-name="Path 24418" d="M765.378,913.855s4.306-1.392,9.4-6.354c4.737-4.613,5.235-12.03,4.441-19.021-.433-3.817-2.9-9.093-4.5-9.216s-9.339,0-9.339,0S764.781,913.855,765.378,913.855Z" transform="translate(-755.274 -867.671)" fill="#e8e8e8"/>
        <path id="Path_24419" data-name="Path 24419" d="M777.513,880.244c-.2,0-7.545.4-9.749.467s-4.475,1.2-4.541,3.941.4,3.338.4,3.338a4.365,4.365,0,0,0-3.072,3.74c-.467,3.137,2.738,5.875,2.738,5.875s-2.831,1.6-2.783,3.806a5.573,5.573,0,0,0,3.185,4.741s-1.936,1.4-1.735,2.8l.2,1.4a8.88,8.88,0,0,0,2.2,2.27,6.532,6.532,0,0,0,2.138.736s.935-1.135,4.206-2.07,1.937-4.942.734-5.343c0,0,6.344-1.4,8.013-4.14s.068-4.607-.867-5.008a18.478,18.478,0,0,0-3.139-.734s5.074-1.269,5.141-3.873-.534-3.2-1.735-3.873a7.4,7.4,0,0,0-3.406-.467,5.459,5.459,0,0,0,2.4-3.74C778.448,881.313,777.513,880.244,777.513,880.244Z" transform="translate(-757.459 -867.181)" fill="#ffc5b8"/>
        <path id="Path_24420" data-name="Path 24420" d="M762.621,885.643a25.143,25.143,0,0,1,2.95-.375c.492-.046.985-.059,1.477-.089s.985-.028,1.477-.04.985,0,1.477.007.985.021,1.479.056a25.564,25.564,0,0,1,2.959.305v.052l-5.909.093-5.91.041Z" transform="translate(-756.456 -864.859)" fill="#e98970"/>
        <path id="Path_24421" data-name="Path 24421" d="M762.393,892.5a28.835,28.835,0,0,1,3.013-.643c.5-.093,1.01-.156,1.514-.234l1.517-.192c.509-.049,1.014-.109,1.521-.155s1.016-.093,1.524-.122c.255-.015.508-.037.762-.05s.512-.025.764-.044.511-.022.765-.038c.127-.007.257-.013.383-.022l.382-.034.016.049-.372.1c-.125.03-.251.052-.376.078-.251.054-.5.091-.755.136q-.756.124-1.517.227c-1.011.14-2.026.265-3.04.385q-3.047.336-6.1.612Z" transform="translate(-756.564 -862.097)" fill="#e98970"/>
        <path id="Path_24422" data-name="Path 24422" d="M762.667,897.943a13.5,13.5,0,0,1,1.937-.316c.643-.063,1.284-.106,1.925-.119s1.284-.006,1.93.024a13.687,13.687,0,0,1,1.951.211l0,.05c-.644.061-1.289.114-1.934.146s-1.292.063-1.937.083-1.293.019-1.939.016-1.293-.013-1.939-.044Z" transform="translate(-756.434 -858.996)" fill="#e98970"/>
      </g>
      <g id="Group_14048" data-name="Group 14048" transform="translate(206.759 162.258)">
        <path id="Path_24423" data-name="Path 24423" d="M867.417,879.792s8.728.419,10-2.788-8.77-4.62-9.972-5.621Z" transform="translate(-853.27 -871.383)" fill="#ffc5b8"/>
        <path id="Path_24424" data-name="Path 24424" d="M871.969,913.855s-4.3-1.392-9.4-6.354c-4.737-4.613-5.235-12.03-4.44-19.021.433-3.817,2.9-9.093,4.5-9.216s9.338,0,9.338,0S872.568,913.855,871.969,913.855Z" transform="translate(-857.821 -867.671)" fill="#e8e8e8"/>
        <path id="Path_24425" data-name="Path 24425" d="M861.66,880.244c.2,0,7.545.4,9.748.467s4.474,1.2,4.541,3.941-.4,3.338-.4,3.338a4.362,4.362,0,0,1,3.071,3.74c.467,3.137-2.738,5.875-2.738,5.875s2.831,1.6,2.785,3.806a5.575,5.575,0,0,1-3.186,4.741s1.937,1.4,1.737,2.8l-.2,1.4a8.9,8.9,0,0,1-2.2,2.27,6.52,6.52,0,0,1-2.136.736s-.935-1.135-4.206-2.07-1.937-4.942-.736-5.343c0,0-6.344-1.4-8.013-4.14s-.066-4.607.868-5.008a18.477,18.477,0,0,1,3.139-.734s-5.076-1.269-5.142-3.873.534-3.2,1.737-3.873a7.394,7.394,0,0,1,3.406-.467,5.463,5.463,0,0,1-2.4-3.74C860.725,881.313,861.66,880.244,861.66,880.244Z" transform="translate(-857.46 -867.181)" fill="#ffc5b8"/>
        <path id="Path_24426" data-name="Path 24426" d="M873.893,885.643a25.16,25.16,0,0,0-2.951-.375c-.492-.046-.983-.059-1.476-.089s-.985-.028-1.477-.04-.985,0-1.479.007-.985.021-1.477.056a25.5,25.5,0,0,0-2.959.305v.052l5.909.093,5.909.041Z" transform="translate(-855.804 -864.859)" fill="#e98970"/>
        <path id="Path_24427" data-name="Path 24427" d="M874.232,892.5a28.818,28.818,0,0,0-3.013-.643c-.5-.093-1.01-.156-1.514-.234l-1.518-.192c-.507-.049-1.013-.109-1.521-.155s-1.014-.093-1.523-.122c-.255-.015-.509-.037-.764-.05s-.51-.025-.764-.044-.512-.022-.764-.038c-.128-.007-.257-.013-.383-.022l-.383-.034-.016.049.373.1c.124.03.251.052.376.078.251.054.5.091.755.136q.756.124,1.516.227c1.013.14,2.027.265,3.041.385q3.045.336,6.1.612Z" transform="translate(-855.807 -862.097)" fill="#e98970"/>
        <path id="Path_24428" data-name="Path 24428" d="M872.537,897.943a13.532,13.532,0,0,0-1.937-.316c-.643-.063-1.284-.106-1.927-.119s-1.284-.006-1.928.024a13.662,13.662,0,0,0-1.95.211l0,.05c.643.061,1.289.114,1.933.146s1.291.063,1.939.083,1.292.019,1.939.016,1.293-.013,1.939-.044Z" transform="translate(-854.516 -858.996)" fill="#e98970"/>
      </g>
    </g>
    <g id="Group_91" data-name="Group 91" transform="translate(921.412 833.646)">
      <circle id="Ellipse_4" data-name="Ellipse 4" cx="20.945" cy="20.945" r="20.945" fill="#07b907"/>
      <path id="Checkbox" d="M871.391,834.534l-8.672-8.673,1.759-1.759,6.913,6.786,11.437-11.437,1.76,1.76Z" transform="translate(-852.576 -806.077)" fill="#fff"/>
    </g>
  </g>
</svg>
