<svg xmlns="http://www.w3.org/2000/svg" width="88.716" height="88.716" viewBox="0 0 88.716 88.716">
  <path id="Path_26371" data-name="Path 26371" d="M-710.221,975.631a44.355,44.355,0,0,1-44.357,44.357,44.356,44.356,0,0,1-44.359-44.357,44.365,44.365,0,0,1,44.359-44.359A44.364,44.364,0,0,1-710.221,975.631Zm-34.341,16.455a2.146,2.146,0,0,0-2.146-2.146h-2.146V972.054A2.146,2.146,0,0,0-751,969.907h-11.447a2.146,2.146,0,0,0-2.146,2.146v4.293a2.146,2.146,0,0,0,2.146,2.146h2.146v11.447h-2.146a2.146,2.146,0,0,0-2.146,2.146v4.293a2.146,2.146,0,0,0,2.146,2.146h15.74a2.146,2.146,0,0,0,2.146-2.146ZM-762.09,958.46a7.511,7.511,0,0,0,7.512,7.51,7.511,7.511,0,0,0,7.512-7.51,7.512,7.512,0,0,0-7.512-7.512A7.512,7.512,0,0,0-762.09,958.46Z" transform="translate(798.937 -931.272)"/>
</svg>
