<svg xmlns="http://www.w3.org/2000/svg" width="82.326" height="70.665" viewBox="0 0 82.326 70.665">
  <g id="Group_3305" data-name="Group 3305" transform="translate(1590.298 -1424.861)">
    <path id="Path_22284" data-name="Path 22284" d="M-1508.005,1666.622h-1.705q-16.43-.01-32.859-.039a1.5,1.5,0,0,0-1.678,1.235,11.1,11.1,0,0,1-10.667,7.763,11.063,11.063,0,0,1-10.416-7.8,1.491,1.491,0,0,0-1.7-1.2c-7.29.039-14.58.032-21.87.037-1.367,0-1.366,0-1.368-1.477,0-1.12.047-2.243-.025-3.358-.06-.925.224-1.237,1.116-1.224,3.239.047,6.48.016,9.72.019,4.192,0,8.382-.008,12.573.034a1.379,1.379,0,0,0,1.547-1.111,11.146,11.146,0,0,1,10.7-7.879,11.315,11.315,0,0,1,10.4,7.894,1.332,1.332,0,0,0,1.539,1.076q16.324-.031,32.647-.012a4.83,4.83,0,0,1,1.365.052,1.071,1.071,0,0,1,.65.731C-1507.977,1663.039-1508.005,1664.716-1508.005,1666.622Zm-46.778,2.906a5.678,5.678,0,0,0,5.578-5.866,5.813,5.813,0,0,0-5.614-6,5.915,5.915,0,0,0-5.624,5.928A5.786,5.786,0,0,0-1554.783,1669.528Z" transform="translate(0 -180.055)"/>
    <path id="Path_22285" data-name="Path 22285" d="M-1563.394,1547.438c8.418,0,16.836-.016,25.252.021a1.765,1.765,0,0,0,2.009-1.4,10.868,10.868,0,0,1,10.556-7.558,10.975,10.975,0,0,1,10.4,7.647c.354,1.031.828,1.375,1.824,1.311,1.439-.092,2.887-.025,4.331-.055.722-.014,1.108.2,1.066,1.079-.062,1.3-.06,2.614,0,3.917.039.872-.328,1.1-1.059,1.089-1.585-.03-3.171,0-4.755-.041-.707-.021-1.048.257-1.3.975-1.769,4.956-5.907,8.03-10.658,7.989s-8.743-3.042-10.533-8.007a1.285,1.285,0,0,0-1.429-.979q-25.576.027-51.15.033c-1.389,0-1.389,0-1.389-1.449,0-1.157.057-2.318-.018-3.47-.058-.9.257-1.152,1.072-1.146,4.191.032,8.384.014,12.576.014h13.21Zm37.9-2.924a5.763,5.763,0,0,0-5.767,5.691,5.778,5.778,0,0,0,5.431,6.154,5.792,5.792,0,0,0,5.786-5.805A5.818,5.818,0,0,0-1525.5,1544.514Z" transform="translate(-0.031 -90.232)"/>
    <path id="Path_22286" data-name="Path 22286" d="M-1589.995,1439.708v-5.786c.285-.019.585-.056.885-.057,2.854,0,5.706-.028,8.559.014a1.438,1.438,0,0,0,1.62-1.169,11.04,11.04,0,0,1,10.813-7.85,11.083,11.083,0,0,1,10.255,7.728,1.656,1.656,0,0,0,1.872,1.3c15.639-.031,31.277-.008,46.917-.053,1.114,0,1.4.343,1.325,1.441-.081,1.225-.039,2.462-.011,3.693.014.632-.239.882-.807.869-.669-.015-1.338-.02-2.007-.02q-22.93,0-45.86-.019a1.152,1.152,0,0,0-1.3.937,11.4,11.4,0,0,1-10.715,8.08,11.333,11.333,0,0,1-10.527-8.027,1.246,1.246,0,0,0-1.389-1.017c-2.782.04-5.564.038-8.347.039C-1589.125,1439.811-1589.535,1439.746-1589.995,1439.708Zm21.577-8.833a5.787,5.787,0,0,0-5.546,6.037,5.861,5.861,0,0,0,5.6,5.907,5.917,5.917,0,0,0,5.617-6.021A5.821,5.821,0,0,0-1568.418,1430.875Z" transform="translate(-0.235)"/>
  </g>
</svg>
