<svg xmlns="http://www.w3.org/2000/svg" width="74.096" height="78.251" viewBox="0 0 74.096 78.251">
  <g id="Report" transform="translate(642.024 -318.46)">
    <g id="Group_3483" data-name="Group 3483" transform="translate(-581.085 321.23)">
      <path id="Path_22315" data-name="Path 22315" d="M-591.792,321.845h-5.54a.692.692,0,0,1-.693-.692.692.692,0,0,1,.693-.693h5.54a.693.693,0,0,1,.692.693A.693.693,0,0,1-591.792,321.845Z" transform="translate(598.024 -320.46)" fill="#fff"/>
    </g>
    <g id="Group_3484" data-name="Group 3484" transform="translate(-578.315 318.46)">
      <path id="Path_22316" data-name="Path 22316" d="M-595.331,325.385a.692.692,0,0,1-.693-.693v-5.54a.692.692,0,0,1,.693-.692.693.693,0,0,1,.692.692v5.54A.693.693,0,0,1-595.331,325.385Z" transform="translate(596.024 -318.46)" fill="#fff"/>
    </g>
    <g id="Group_3485" data-name="Group 3485" transform="translate(-574.853 329.54)">
      <path id="Path_22317" data-name="Path 22317" d="M-587.292,327.845h-5.54a.692.692,0,0,1-.692-.693.692.692,0,0,1,.692-.693h5.54a.693.693,0,0,1,.692.693A.693.693,0,0,1-587.292,327.845Z" transform="translate(593.524 -326.46)" fill="#fff"/>
    </g>
    <g id="Group_3486" data-name="Group 3486" transform="translate(-572.083 326.77)">
      <path id="Path_22318" data-name="Path 22318" d="M-590.831,331.385a.692.692,0,0,1-.693-.692v-5.54a.692.692,0,0,1,.693-.692.693.693,0,0,1,.693.692v5.54A.693.693,0,0,1-590.831,331.385Z" transform="translate(591.524 -324.46)" fill="#fff"/>
    </g>
    <g id="Group_3487" data-name="Group 3487" transform="translate(-637.177 322.615)">
      <path id="Path_22319" data-name="Path 22319" d="M-634.369,329.365a3.8,3.8,0,0,1,3.846-3.75h41.858v-.693a3.463,3.463,0,0,0-3.462-3.462h-42.934a3.462,3.462,0,0,0-3.462,3.462v59.554a3.462,3.462,0,0,0,3.462,3.462h.693Z" transform="translate(638.524 -321.46)" fill="#25aec6"/>
    </g>
    <g id="Group_3488" data-name="Group 3488" transform="translate(-637.869 321.922)">
      <path id="Path_22320" data-name="Path 22320" d="M-634.177,388.824h-.692a4.159,4.159,0,0,1-4.155-4.155V325.115a4.159,4.159,0,0,1,4.155-4.155h42.934a4.16,4.16,0,0,1,4.155,4.155v.693a.693.693,0,0,1-.693.692.692.692,0,0,1-.693-.692v-.693a2.773,2.773,0,0,0-2.77-2.77h-42.934a2.773,2.773,0,0,0-2.77,2.77v59.554a2.773,2.773,0,0,0,2.77,2.77h.692a.693.693,0,0,1,.693.693A.693.693,0,0,1-634.177,388.824Z" transform="translate(639.024 -320.96)" fill="#fff"/>
    </g>
    <g id="Group_3489" data-name="Group 3489" transform="translate(-630.944 328.847)">
      <path id="Path_22321" data-name="Path 22321" d="M-586.935,393.824h-42.934a4.159,4.159,0,0,1-4.155-4.155V330.115a4.159,4.159,0,0,1,4.155-4.155h42.934a4.16,4.16,0,0,1,4.155,4.155v59.554A4.16,4.16,0,0,1-586.935,393.824Zm-42.934-66.479a2.773,2.773,0,0,0-2.77,2.77v59.554a2.773,2.773,0,0,0,2.77,2.77h42.934a2.773,2.773,0,0,0,2.77-2.77V330.115a2.773,2.773,0,0,0-2.77-2.77Z" transform="translate(634.024 -325.96)" fill="#fff"/>
    </g>
    <g id="Group_3490" data-name="Group 3490" transform="translate(-626.097 364.164)">
      <rect id="Rectangle_3719" data-name="Rectangle 3719" width="5.54" height="11.08" transform="translate(0.692 0.693)" fill="#e23b43"/>
      <path id="Path_22322" data-name="Path 22322" d="M-624.292,363.925h-5.54a.692.692,0,0,1-.693-.693v-11.08a.692.692,0,0,1,.693-.692h5.54a.693.693,0,0,1,.693.692v11.08A.693.693,0,0,1-624.292,363.925Zm-4.847-1.385h4.155v-9.695h-4.155Z" transform="translate(630.524 -351.46)" fill="#fff"/>
    </g>
    <g id="Group_3491" data-name="Group 3491" transform="translate(-616.402 355.854)">
      <path id="Path_22343" data-name="Path 22343" d="M0,0H5.54V19.39H0Z" transform="translate(0.692 0.693)" fill="#00e152"/>
      <path id="Path_22323" data-name="Path 22323" d="M-617.292,366.235h-5.54a.692.692,0,0,1-.693-.693v-19.39a.692.692,0,0,1,.693-.693h5.54a.693.693,0,0,1,.693.693v19.39A.693.693,0,0,1-617.292,366.235Zm-4.847-1.385h4.155v-18h-4.155Z" transform="translate(623.524 -345.46)" fill="#fff"/>
    </g>
    <g id="Group_3492" data-name="Group 3492" transform="translate(-606.707 360.009)">
      <rect id="Rectangle_3721" data-name="Rectangle 3721" width="5.54" height="15.235" transform="translate(0.692 0.693)" fill="#ffcc28"/>
      <path id="Path_22324" data-name="Path 22324" d="M-610.292,365.08h-5.54a.692.692,0,0,1-.692-.693V349.152a.692.692,0,0,1,.692-.693h5.54a.693.693,0,0,1,.693.693v15.235A.693.693,0,0,1-610.292,365.08Zm-4.847-1.385h4.155v-13.85h-4.155Z" transform="translate(616.524 -348.46)" fill="#fff"/>
    </g>
    <g id="Group_3493" data-name="Group 3493" transform="translate(-626.789 348.237)">
      <path id="Path_22325" data-name="Path 22325" d="M-588.782,341.345h-41.549a.692.692,0,0,1-.693-.692.692.692,0,0,1,.693-.692h41.549a.693.693,0,0,1,.693.692A.693.693,0,0,1-588.782,341.345Z" transform="translate(631.024 -339.96)" fill="#fff"/>
    </g>
    <g id="Group_3494" data-name="Group 3494" transform="translate(-595.627 362.779)">
      <path id="Path_22326" data-name="Path 22326" d="M-597.444,351.845h-10.387a.692.692,0,0,1-.692-.693.692.692,0,0,1,.692-.693h10.387a.693.693,0,0,1,.693.693A.693.693,0,0,1-597.444,351.845Z" transform="translate(608.524 -350.46)" fill="#fff"/>
    </g>
    <g id="Group_3495" data-name="Group 3495" transform="translate(-595.627 366.934)">
      <path id="Path_22327" data-name="Path 22327" d="M-597.444,354.845h-10.387a.692.692,0,0,1-.692-.693.692.692,0,0,1,.692-.693h10.387a.693.693,0,0,1,.693.693A.693.693,0,0,1-597.444,354.845Z" transform="translate(608.524 -353.46)" fill="#fff"/>
    </g>
    <g id="Group_3496" data-name="Group 3496" transform="translate(-595.627 371.089)">
      <path id="Path_22328" data-name="Path 22328" d="M-597.444,357.845h-10.387a.692.692,0,0,1-.692-.692.692.692,0,0,1,.692-.693h10.387a.693.693,0,0,1,.693.693A.693.693,0,0,1-597.444,357.845Z" transform="translate(608.524 -356.46)" fill="#fff"/>
    </g>
    <g id="Group_3497" data-name="Group 3497" transform="translate(-595.627 375.244)">
      <path id="Path_22329" data-name="Path 22329" d="M-597.444,360.845h-10.387a.692.692,0,0,1-.692-.693.692.692,0,0,1,.692-.693h10.387a.693.693,0,0,1,.693.693A.693.693,0,0,1-597.444,360.845Z" transform="translate(608.524 -359.46)" fill="#fff"/>
    </g>
    <g id="Group_3498" data-name="Group 3498" transform="translate(-626.097 383.455)">
      <path id="Path_22330" data-name="Path 22330" d="M-588.975,366.774h-40.857a.692.692,0,0,1-.693-.693.691.691,0,0,1,.693-.693h40.857a.692.692,0,0,1,.693.693A.693.693,0,0,1-588.975,366.774Z" transform="translate(630.524 -365.389)" fill="#fff"/>
    </g>
    <g id="Group_3499" data-name="Group 3499" transform="translate(-642.024 339.235)">
      <path id="Path_22331" data-name="Path 22331" d="M-641.331,336.23a.692.692,0,0,1-.693-.692v-1.385a.692.692,0,0,1,.693-.692.693.693,0,0,1,.693.692v1.385A.693.693,0,0,1-641.331,336.23Z" transform="translate(642.024 -333.46)" fill="#fff"/>
    </g>
    <g id="Group_3500" data-name="Group 3500" transform="translate(-642.024 343.389)">
      <path id="Path_22332" data-name="Path 22332" d="M-641.331,358.62a.692.692,0,0,1-.693-.692V337.152a.692.692,0,0,1,.693-.693.693.693,0,0,1,.693.693v20.775A.693.693,0,0,1-641.331,358.62Z" transform="translate(642.024 -336.46)" fill="#fff"/>
    </g>
    <g id="Group_3501" data-name="Group 3501" transform="translate(-576.93 376.629)">
      <path id="Path_22333" data-name="Path 22333" d="M-594.331,363.23a.692.692,0,0,1-.693-.692v-1.385a.692.692,0,0,1,.693-.692.693.693,0,0,1,.693.692v1.385A.693.693,0,0,1-594.331,363.23Z" transform="translate(595.024 -360.46)" fill="#fff"/>
    </g>
    <g id="Group_3502" data-name="Group 3502" transform="translate(-576.93 353.084)">
      <path id="Path_22334" data-name="Path 22334" d="M-594.331,365.62a.692.692,0,0,1-.693-.693V344.152a.692.692,0,0,1,.693-.693.693.693,0,0,1,.693.693v20.775A.693.693,0,0,1-594.331,365.62Z" transform="translate(595.024 -343.46)" fill="#fff"/>
    </g>
    <g id="Group_3503" data-name="Group 3503" transform="translate(-625.942 331.889)">
      <path id="Path_22335" data-name="Path 22335" d="M-629.342,334.32a.566.566,0,0,1-.4.158.546.546,0,0,1-.4-.158.535.535,0,0,1-.158-.393v-5.22a.524.524,0,0,1,.163-.393.571.571,0,0,1,.416-.158.538.538,0,0,1,.388.158.528.528,0,0,1,.162.393v5.22A.512.512,0,0,1-629.342,334.32Z" transform="translate(630.456 -328.156)" fill="#fff"/>
      <path id="Path_22336" data-name="Path 22336" d="M-627.853,333.068a.473.473,0,0,1,.234-.4.481.481,0,0,1,.262-.082.51.51,0,0,1,.361.172,1.942,1.942,0,0,0,.565.417,1.687,1.687,0,0,0,.709.134q.7-.027.705-.533a.43.43,0,0,0-.24-.4,3.306,3.306,0,0,0-.745-.271,6.514,6.514,0,0,1-.855-.289,1.509,1.509,0,0,1-.568-.438,1.209,1.209,0,0,1-.24-.791,1.2,1.2,0,0,1,.248-.753,1.631,1.631,0,0,1,.651-.5,2.1,2.1,0,0,1,.853-.176,2.611,2.611,0,0,1,.921.172,1.593,1.593,0,0,1,.723.506.509.509,0,0,1,.118.325.424.424,0,0,1-.172.344.463.463,0,0,1-.289.1.442.442,0,0,1-.326-.126,1.129,1.129,0,0,0-.42-.316,1.378,1.378,0,0,0-.582-.118c-.458,0-.687.165-.687.5a.425.425,0,0,0,.126.32.849.849,0,0,0,.32.19c.13.046.313.1.547.168a5.808,5.808,0,0,1,.813.28,1.4,1.4,0,0,1,.551.442,1.278,1.278,0,0,1,.226.787,1.208,1.208,0,0,1-.262.773,1.671,1.671,0,0,1-.673.5,2.189,2.189,0,0,1-.845.172,3.077,3.077,0,0,1-1.111-.2,1.843,1.843,0,0,1-.839-.641A.431.431,0,0,1-627.853,333.068Z" transform="translate(631.397 -327.767)" fill="#fff"/>
      <path id="Path_22337" data-name="Path 22337" d="M-623.731,333.068a.473.473,0,0,1,.234-.4.481.481,0,0,1,.262-.082.51.51,0,0,1,.361.172,1.943,1.943,0,0,0,.565.417,1.687,1.687,0,0,0,.709.134q.7-.027.7-.533a.43.43,0,0,0-.24-.4,3.31,3.31,0,0,0-.745-.271,6.443,6.443,0,0,1-.854-.289,1.507,1.507,0,0,1-.568-.438,1.209,1.209,0,0,1-.241-.791,1.192,1.192,0,0,1,.249-.753,1.632,1.632,0,0,1,.651-.5,2.09,2.09,0,0,1,.853-.176,2.611,2.611,0,0,1,.921.172,1.594,1.594,0,0,1,.723.506.509.509,0,0,1,.118.325.424.424,0,0,1-.172.344.463.463,0,0,1-.289.1.439.439,0,0,1-.325-.126,1.129,1.129,0,0,0-.42-.316,1.381,1.381,0,0,0-.583-.118c-.457,0-.686.165-.686.5a.425.425,0,0,0,.126.32.851.851,0,0,0,.32.19c.13.046.312.1.547.168a5.816,5.816,0,0,1,.813.28,1.4,1.4,0,0,1,.551.442,1.278,1.278,0,0,1,.226.787,1.207,1.207,0,0,1-.262.773,1.67,1.67,0,0,1-.673.5,2.189,2.189,0,0,1-.845.172,3.078,3.078,0,0,1-1.111-.2,1.853,1.853,0,0,1-.841-.641A.439.439,0,0,1-623.731,333.068Z" transform="translate(632.984 -327.767)" fill="#fff"/>
      <path id="Path_22338" data-name="Path 22338" d="M-615.374,329.39a.542.542,0,0,1,.154.393v2.294a2.1,2.1,0,0,1-.537,1.528,2.043,2.043,0,0,1-1.53.551,2.029,2.029,0,0,1-1.528-.551,2.111,2.111,0,0,1-.533-1.528v-2.294a.542.542,0,0,1,.154-.393.521.521,0,0,1,.389-.158.518.518,0,0,1,.388.158.542.542,0,0,1,.154.393v2.294a1.185,1.185,0,0,0,.244.819.946.946,0,0,0,.733.266.954.954,0,0,0,.74-.266,1.178,1.178,0,0,0,.245-.819v-2.294a.541.541,0,0,1,.152-.393.521.521,0,0,1,.389-.158A.518.518,0,0,1-615.374,329.39Z" transform="translate(634.671 -327.742)" fill="#fff"/>
      <path id="Path_22339" data-name="Path 22339" d="M-610.3,331.912a.57.57,0,0,1-.38.136h-2.98a1.368,1.368,0,0,0,.5.837,1.4,1.4,0,0,0,.877.3,1.936,1.936,0,0,0,.579-.068,1.537,1.537,0,0,0,.33-.144l.166-.1a.7.7,0,0,1,.307-.082.446.446,0,0,1,.325.136.434.434,0,0,1,.136.316.564.564,0,0,1-.254.443,2.148,2.148,0,0,1-.677.352,2.637,2.637,0,0,1-.859.145,2.663,2.663,0,0,1-1.323-.317,2.209,2.209,0,0,1-.873-.871,2.559,2.559,0,0,1-.306-1.252,2.76,2.76,0,0,1,.325-1.363,2.3,2.3,0,0,1,.857-.9,2.218,2.218,0,0,1,1.138-.312,2.106,2.106,0,0,1,1.125.326,2.439,2.439,0,0,1,.845.875,2.36,2.36,0,0,1,.316,1.192A.467.467,0,0,1-610.3,331.912Zm-3.352-.767h2.367v-.064a.929.929,0,0,0-.37-.65,1.17,1.17,0,0,0-.759-.271A1.122,1.122,0,0,0-613.654,331.145Z" transform="translate(636.446 -327.767)" fill="#fff"/>
      <path id="Path_22340" data-name="Path 22340" d="M-626.243,334.554a2.659,2.659,0,0,1,.931,1.138,3.89,3.89,0,0,1,.321,1.6,3.9,3.9,0,0,1-.321,1.6,2.659,2.659,0,0,1-.931,1.138,2.506,2.506,0,0,1-1.458.42h-2.159a.534.534,0,0,1-.393-.158.534.534,0,0,1-.158-.393v-5.221a.531.531,0,0,1,.158-.392.534.534,0,0,1,.393-.158h2.159A2.506,2.506,0,0,1-626.243,334.554Zm-.33,4.263a2.653,2.653,0,0,0,.407-1.522,2.64,2.64,0,0,0-.411-1.522,1.378,1.378,0,0,0-1.215-.6h-1.492v4.245h1.492A1.373,1.373,0,0,0-626.573,338.817Z" transform="translate(630.412 -325.855)" fill="#fff"/>
      <path id="Path_22341" data-name="Path 22341" d="M-620.389,338.952a2.3,2.3,0,0,1-.891.889,2.5,2.5,0,0,1-1.242.316,2.5,2.5,0,0,1-1.246-.316,2.313,2.313,0,0,1-.885-.889,2.589,2.589,0,0,1-.325-1.3,2.589,2.589,0,0,1,.325-1.3,2.347,2.347,0,0,1,.885-.895,2.471,2.471,0,0,1,1.246-.32,2.474,2.474,0,0,1,1.242.32,2.332,2.332,0,0,1,.891.895,2.589,2.589,0,0,1,.326,1.3A2.589,2.589,0,0,1-620.389,338.952Zm-.945-2.087a1.363,1.363,0,0,0-.5-.537,1.306,1.306,0,0,0-.691-.19,1.3,1.3,0,0,0-.69.19,1.363,1.363,0,0,0-.5.537,1.663,1.663,0,0,0-.186.791,1.629,1.629,0,0,0,.186.785,1.37,1.37,0,0,0,.5.533,1.3,1.3,0,0,0,.69.19,1.306,1.306,0,0,0,.691-.19,1.37,1.37,0,0,0,.5-.533,1.629,1.629,0,0,0,.186-.785A1.663,1.663,0,0,0-621.334,336.865Z" transform="translate(632.503 -325.465)" fill="#fff"/>
      <path id="Path_22342" data-name="Path 22342" d="M-616.383,335.383a.719.719,0,0,1,.47.637.539.539,0,0,1-.118.348.37.37,0,0,1-.306.15.589.589,0,0,1-.235-.04.822.822,0,0,1-.176-.109,1.473,1.473,0,0,0-.168-.112,1.072,1.072,0,0,0-.266-.082,1.53,1.53,0,0,0-.285-.036,1.366,1.366,0,0,0-1.061.42,1.561,1.561,0,0,0-.384,1.1,1.545,1.545,0,0,0,.388,1.079,1.281,1.281,0,0,0,.994.429,1.519,1.519,0,0,0,.659-.109,1.079,1.079,0,0,0,.148-.094,1.082,1.082,0,0,1,.177-.1.5.5,0,0,1,.2-.036.46.46,0,0,1,.357.144.532.532,0,0,1,.13.371.524.524,0,0,1-.252.406,2,2,0,0,1-.669.3,3.384,3.384,0,0,1-.885.112,2.281,2.281,0,0,1-1.224-.326,2.181,2.181,0,0,1-.817-.9,2.807,2.807,0,0,1-.289-1.278,2.724,2.724,0,0,1,.3-1.3,2.229,2.229,0,0,1,.843-.889,2.374,2.374,0,0,1,1.23-.32A2.739,2.739,0,0,1-616.383,335.383Z" transform="translate(634.422 -325.465)" fill="#fff"/>
    </g>
  </g>
</svg>
