<svg xmlns="http://www.w3.org/2000/svg" xmlns:xlink="http://www.w3.org/1999/xlink" width="428.873" height="26.199" viewBox="0 0 428.873 26.199">
  <defs>
    <linearGradient id="linear-gradient" x1="0.5" x2="0.5" y2="1" gradientUnits="objectBoundingBox">
      <stop offset="0" stop-color="#58c3d5"/>
      <stop offset="1" stop-color="#ec515f"/>
    </linearGradient>
  </defs>
  <path id="Path_11183" data-name="Path 11183" d="M-3597.845-19947.23q-3.579,0-6.988-.219c-15.192-.965-26.577-5.027-38.63-9.328-10.932-3.9-22.236-7.932-37.911-10.42a97.82,97.82,0,0,0-15.476-1.232c-.329,0-.658,0-.988,0a105.449,105.449,0,0,0-15.084,1.264c-9.76,1.5-19.1,4.174-28.141,6.762-10.725,3.07-21.814,6.244-33.814,7.547a102.669,102.669,0,0,1-19.008.338,107.8,107.8,0,0,1-21.28-3.83c-12.36-3.477-28.269-6.031-47.285-7.6-14.913-1.229-31.744-1.85-50.045-1.85q-.659,0-1.32,0c-32.055.051-57.739,2.006-57.995,2.025l-.385-4.984c.258-.02,26.13-1.99,58.371-2.041.442,0,.885,0,1.325,0,18.439,0,35.407.627,50.458,1.865,19.334,1.592,35.561,4.205,48.229,7.768a102.929,102.929,0,0,0,20.3,3.656,97.543,97.543,0,0,0,18.091-.322c11.574-1.256,22.455-4.371,32.977-7.383,9.186-2.631,18.685-5.35,28.759-6.9a110.228,110.228,0,0,1,15.793-1.32c.346,0,.693-.006,1.039-.006a102.59,102.59,0,0,1,16.258,1.295,168.95,168.95,0,0,1,21.4,4.836c6.317,1.855,11.956,3.867,17.41,5.813,6.021,2.148,11.709,4.178,17.736,5.793a97.664,97.664,0,0,0,19.531,3.256,125.837,125.837,0,0,0,25.2-1.146,254.921,254.921,0,0,0,34.631-7.574l1.361,4.813C-3565.113-19950.18-3582.67-19947.23-3597.845-19947.23Z" transform="translate(3972.192 19973.43)" fill="url(#linear-gradient)"/>
</svg>
