<svg xmlns="http://www.w3.org/2000/svg" xmlns:xlink="http://www.w3.org/1999/xlink" width="44.672" height="41.972" viewBox="0 0 44.672 41.972">
  <defs>
    <filter id="spy-male" x="0" y="0" width="44.672" height="41.972" filterUnits="userSpaceOnUse">
      <feOffset dy="3" input="SourceAlpha"/>
      <feGaussianBlur stdDeviation="3" result="blur"/>
      <feFlood flood-opacity="0.161"/>
      <feComposite operator="in" in2="blur"/>
      <feComposite in="SourceGraphic"/>
    </filter>
  </defs>
  <g transform="matrix(1, 0, 0, 1, 0, 0)" filter="url(#spy-male)">
    <path id="spy-male-2" data-name="spy-male" d="M10.961,2a3.471,3.471,0,0,0-2.212.842A6.072,6.072,0,0,0,7.374,4.6,20,20,0,0,0,5.9,8.448a13.2,13.2,0,0,0-1.525.614,5.3,5.3,0,0,0-1.365.9,2.268,2.268,0,0,0-.769,1.625,2.761,2.761,0,0,0,1.4,2.225,8.923,8.923,0,0,0,2.109.986q0,.029,0,.057A8.311,8.311,0,0,0,5.9,16.391L.588,19.047l4.154,6.925,2-1.2L3.888,20.011l2.7-1.353a15.2,15.2,0,0,0,1.55,2.835c1.431,2.061,3.373,3.846,5.765,3.88S18.264,23.6,19.7,21.526a15.335,15.335,0,0,0,1.561-2.867l2.7,1.351L21.1,24.772l2,1.2,4.154-6.925-5.311-2.657a8.337,8.337,0,0,0,.155-1.536q0-.027,0-.055a8.92,8.92,0,0,0,2.109-.988,2.761,2.761,0,0,0,1.4-2.225,2.268,2.268,0,0,0-.769-1.625,5.3,5.3,0,0,0-1.365-.9,13.207,13.207,0,0,0-1.529-.616A28.8,28.8,0,0,0,20.4,4.556a5.789,5.789,0,0,0-1.331-1.735A3.423,3.423,0,0,0,16.884,2c-1.374,0-2.01.315-2.963.315a6.18,6.18,0,0,1-1.233-.139A9.136,9.136,0,0,0,10.961,2Zm0,2.337a6.532,6.532,0,0,1,1.312.139,8.648,8.648,0,0,0,1.648.176c1.375,0,2.011-.315,2.963-.315a.921.921,0,0,1,.678.269,3.73,3.73,0,0,1,.778,1.054,23.205,23.205,0,0,1,1.139,2.9,5.7,5.7,0,0,1-.728.164,36.639,36.639,0,0,1-4.83.283,35.821,35.821,0,0,1-4.786-.283,5.932,5.932,0,0,1-.778-.176A16.765,16.765,0,0,1,9.421,5.732a4.011,4.011,0,0,1,.833-1.1A1,1,0,0,1,10.961,4.337ZM6.917,10.58l.032.016a7.833,7.833,0,0,0,1.846.445,37.292,37.292,0,0,0,5.126.308,38.083,38.083,0,0,0,5.167-.308,7.665,7.665,0,0,0,1.858-.447l.011,0a12,12,0,0,1,1.49.575,3.448,3.448,0,0,1,.755.475c0-.026.023.015-.315.247a7.94,7.94,0,0,1-2.04.886,25.278,25.278,0,0,1-6.925.915A25.278,25.278,0,0,1,7,12.771a7.94,7.94,0,0,1-2.04-.886c-.338-.232-.311-.273-.315-.247a3.448,3.448,0,0,1,.755-.475A12.1,12.1,0,0,1,6.917,10.58Zm1.21,4.878c.281.058.582.1.874.151a2.315,2.315,0,0,0,2.219,2.136,1.9,1.9,0,0,0,2.191-1.737c.172,0,.341.016.514.016s.341-.013.514-.016a1.9,1.9,0,0,0,2.191,1.737,2.315,2.315,0,0,0,2.219-2.136c.293-.049.593-.093.874-.151A11.905,11.905,0,0,1,17.775,20.2c-1.2,1.736-2.756,2.852-3.834,2.837-1.118-.016-2.681-1.152-3.878-2.876A11.721,11.721,0,0,1,8.127,15.457Z" transform="translate(8.41 4)"/>
  </g>
</svg>
