<svg xmlns="http://www.w3.org/2000/svg" width="108.331" height="79.251" viewBox="0 0 108.331 79.251">
  <g id="Group_13367" data-name="Group 13367" transform="translate(-540.835 -996.375)">
    <path id="Path_23216" data-name="Path 23216" d="M258.568,136.053v11.414a17.248,17.248,0,0,1-17.349,17.152h-5.591a17.271,17.271,0,0,1-17.3-15.869l-.672-8.917h-7.4l-.672,8.917a17.274,17.274,0,0,1-17.3,15.869h-5.59a17.247,17.247,0,0,1-17.349-17.152V136.049a9.723,9.723,0,0,1,.28-2.322l7.039-29.092A12.39,12.39,0,0,1,192.6,95.861l3.545,1.18a1.237,1.237,0,0,1,.846,1.174,1.257,1.257,0,0,1-.062.386l-.783,2.351a1.242,1.242,0,0,1-1.178.852,1.218,1.218,0,0,1-.386-.062l-3.143-1.051a7.98,7.98,0,0,0-6.2.333,7.374,7.374,0,0,0-3.761,4.786l-6.284,26.524A43.174,43.174,0,0,1,189.067,130a41.281,41.281,0,0,1,19.364,4.877h11.052A41.313,41.313,0,0,1,238.847,130a43.051,43.051,0,0,1,13.874,2.332L246.43,105.78a7.423,7.423,0,0,0-4.878-5.244,7.57,7.57,0,0,0-4.839.074l-3.375,1.124a1.18,1.18,0,0,1-.391.065,1.241,1.241,0,0,1-1.177-.848l-.785-2.353a1.268,1.268,0,0,1-.062-.388,1.239,1.239,0,0,1,.847-1.176l3.534-1.182a12.411,12.411,0,0,1,15.941,8.752l7.048,29.123a9.913,9.913,0,0,1,.276,2.326m-53.206,2.8a36.2,36.2,0,0,0-16.289-3.895,38.524,38.524,0,0,0-14.775,3.016v9.493a12.307,12.307,0,0,0,12.392,12.195h5.59a12.371,12.371,0,0,0,12.361-11.287Zm-16.289-1.418a33.579,33.579,0,0,1,13.688,2.93l-.593,7.82a9.882,9.882,0,0,1-9.888,9h-5.59a9.827,9.827,0,0,1-9.914-9.716v-2.1l9.163-7.76c1.013-.1,2.044-.172,3.133-.172m64.537.538a38.523,38.523,0,0,0-14.769-3.017,36.3,36.3,0,0,0-16.294,3.895l.72,9.523a12.37,12.37,0,0,0,12.36,11.287h5.591a12.307,12.307,0,0,0,12.392-12.195Zm-14.769-.538a36.155,36.155,0,0,1,12.291,2.224v7.807a9.827,9.827,0,0,1-9.914,9.716h-5.591a9.883,9.883,0,0,1-9.888-9l-.137-1.822,10.175-8.768c1.016-.087,2.032-.161,3.064-.161" transform="translate(380.658 905.777)" fill="#00c6d8"/>
    <g id="Group_13364" data-name="Group 13364" transform="translate(316.664 262.76)">
      <line id="Line_10" data-name="Line 10" y1="76" x2="106" transform="translate(225.336 735.24)" fill="none" stroke="#ff405a" stroke-width="4"/>
      <line id="Line_11" data-name="Line 11" x1="106" y1="76" transform="translate(225.336 735.24)" fill="none" stroke="#ff405a" stroke-width="4"/>
    </g>
  </g>
</svg>
