<svg xmlns="http://www.w3.org/2000/svg" width="170.929" height="411.064" viewBox="0 0 170.929 411.064">
  <path id="Intersection_1" data-name="Intersection 1" d="M4374.119,22537.363a6.511,6.511,0,0,1,6.608-6.41,76.438,76.438,0,0,0,19.27-2.455v13.193a90.189,90.189,0,0,1-19.27,2.07A6.508,6.508,0,0,1,4374.119,22537.363ZM4304.083,22467a28.33,28.33,0,0,1,13.947-17.027,27.679,27.679,0,0,1,2.588,21.648,28.46,28.46,0,0,1-13.947,17.016A27.546,27.546,0,0,1,4304.083,22467Zm32.43-5.7a29.2,29.2,0,0,1,19.746-10.25,27.866,27.866,0,0,1-6.444,20.867,29.319,29.319,0,0,1-19.729,10.238A27.673,27.673,0,0,1,4336.514,22461.3Zm26.807-3.029a28.581,28.581,0,0,1,14.893-16.236,27.512,27.512,0,0,1,1.354,21.734,28.489,28.489,0,0,1-14.9,16.229A27.464,27.464,0,0,1,4363.321,22458.273Zm-94.04-7.045a28.241,28.241,0,0,1,13.313-17.492,27.655,27.655,0,0,1,3.38,21.529,28.462,28.462,0,0,1-13.312,17.5A27.516,27.516,0,0,1,4269.281,22451.229Zm24.649-13.92a28.182,28.182,0,0,1,13.291-17.514,27.648,27.648,0,0,1,3.4,21.523,28.344,28.344,0,0,1-13.273,17.51A27.5,27.5,0,0,1,4293.93,22437.309Zm94.765,6.264a29.505,29.505,0,0,1,11.3-3.846v14.4A28.819,28.819,0,0,1,4388.695,22443.572Zm-66.95-11.795a11.887,11.887,0,1,1,8.7,20.063A27.815,27.815,0,0,1,4321.745,22431.777Zm24.961,10.68a28.253,28.253,0,0,1,12.871-17.8,29.591,29.591,0,0,1,22.067-3.611,28.441,28.441,0,0,1-12.894,17.8,29.785,29.785,0,0,1-22.044,3.613Zm-79.889-15.781a28.354,28.354,0,0,1,13.76-17.152,29.653,29.653,0,0,1,22.209-2.531,28.377,28.377,0,0,1-13.777,17.141,29.721,29.721,0,0,1-22.192,2.543Zm129.692-.2a6.407,6.407,0,1,1,0-12.809q1.756,0,3.488.092v12.832Q4398.27,22426.478,4396.509,22426.477Zm-144.375-25.748a29.234,29.234,0,0,1,19.978-9.791,27.847,27.847,0,0,1-6.92,20.7,29.336,29.336,0,0,1-19.966,9.791A27.626,27.626,0,0,1,4252.134,22400.729Zm60.573,15.023a6.287,6.287,0,0,1-1.161-8.992,88.143,88.143,0,0,1,69.181-32.787,89.8,89.8,0,0,1,19.27,2.08v13.193a76.452,76.452,0,0,0-19.27-2.453,74.843,74.843,0,0,0-58.744,27.838,6.768,6.768,0,0,1-9.276,1.121Zm58.433-5.885a28.784,28.784,0,0,1-16.371-14.846,29.621,29.621,0,0,1,22.345-.867,28.729,28.729,0,0,1,16.365,14.836,29.762,29.762,0,0,1-22.339.877Zm-91.916-17.061a29.026,29.026,0,0,1,18.941-11.574,29.522,29.522,0,0,1,21.779,4.949A29.1,29.1,0,0,1,4301,22397.75a29.4,29.4,0,0,1-4.791.391A29.7,29.7,0,0,1,4279.225,22392.807Zm-17.017-9.541a27.984,27.984,0,0,1,10.08-19.441,29.544,29.544,0,0,1,21.263-6.709,27.942,27.942,0,0,1-10.079,19.434,29.525,29.525,0,0,1-18.931,6.807C4263.76,22383.355,4262.984,22383.328,4262.208,22383.266Zm61.043-5.73a29.118,29.118,0,0,1-18.743-11.863,29.525,29.525,0,0,1,21.852-4.621,28.966,28.966,0,0,1,18.732,11.869,29.512,29.512,0,0,1-16.58,5.078A30.4,30.4,0,0,1,4323.251,22377.535Zm-89.249-3.5a28.082,28.082,0,0,1,11.971-18.393,29.523,29.523,0,0,1,21.835-4.654,28.247,28.247,0,0,1-11.959,18.387,29.709,29.709,0,0,1-16.688,5.107A30.171,30.171,0,0,1,4234,22374.035Zm119.041-6.9a28.625,28.625,0,0,1-14.791-16.32,29.6,29.6,0,0,1,22.316,1.246,28.409,28.409,0,0,1,14.785,16.33,29.771,29.771,0,0,1-22.311-1.256Zm-24.31-24.066a129.174,129.174,0,0,0-48.727,9.428,6.687,6.687,0,0,1-8.647-3.437,6.333,6.333,0,0,1,3.545-8.381,141.561,141.561,0,0,1,41.258-9.854,117.7,117.7,0,0,0,.334-92.271,6.333,6.333,0,0,1,3.607-8.348,6.69,6.69,0,0,1,8.63,3.506,131.146,131.146,0,0,1,5.3,15.215A85,85,0,0,1,4400,22202.58v12.928c-34.7,5.1-61.032,34.2-61.032,68.854a129.4,129.4,0,0,1-8.386,45.93,142.586,142.586,0,0,1,50.279,9.762,117.993,117.993,0,0,0-1.234-67.492,6.36,6.36,0,0,1,4.354-8.014,6.644,6.644,0,0,1,8.273,4.225c.2.629.374,1.264.572,1.9q3.631-.964,7.174-2.172v95.975A128.38,128.38,0,0,0,4328.733,22343.066Zm-98.451-7.221a29.617,29.617,0,1,1,20.884,7.787c-.277.01-.555.016-.833.016A29.511,29.511,0,0,1,4230.282,22335.846Zm58.189-13.115a28.289,28.289,0,0,1-12.7-17.928,29.646,29.646,0,0,1,22.005,3.863,28.124,28.124,0,0,1,12.684,17.91,29.806,29.806,0,0,1-6.308.674A29.322,29.322,0,0,1,4288.472,22322.73Zm49.593-.492a28.205,28.205,0,0,1,12.86-17.809,29.51,29.51,0,0,1,22.045-3.631,28.443,28.443,0,0,1-12.882,17.8,29.55,29.55,0,0,1-22.022,3.635Zm-87.244-3.092a28.647,28.647,0,0,1-15.2-15.98,29.729,29.729,0,0,1,22.345.725,28.519,28.519,0,0,1,15.181,15.98,29.717,29.717,0,0,1-22.322-.725Zm42.9-23.518a27.834,27.834,0,0,1-7.01-20.68,29.2,29.2,0,0,1,20.012,9.707,27.745,27.745,0,0,1,7,20.68A29.243,29.243,0,0,1,4293.721,22295.629Zm-36.694-1.852a28.484,28.484,0,0,1-14.089-16.908,29.644,29.644,0,0,1,22.243,2.146,28.423,28.423,0,0,1,14.083,16.914,29.676,29.676,0,0,1-22.237-2.152Zm92.12-23.885a28.988,28.988,0,0,1,18.766-11.818,27.662,27.662,0,0,1-4.6,21.309,28.932,28.932,0,0,1-18.771,11.813A27.555,27.555,0,0,1,4349.147,22269.893Zm-51.734-1.086a27.809,27.809,0,0,1-6.252-20.918,29.065,29.065,0,0,1,19.633,10.406,27.655,27.655,0,0,1,6.24,20.9A29.128,29.128,0,0,1,4297.413,22268.807Zm-35.913-6.684a27.676,27.676,0,0,1-2.662-21.619,28.806,28.806,0,0,1,17.628,13.375,27.529,27.529,0,0,1,2.656,21.619A28.79,28.79,0,0,1,4261.5,22262.123Zm121.333-14.512a28.215,28.215,0,0,1-13.075-17.656,29.551,29.551,0,0,1,22.073,3.391,28.506,28.506,0,0,1,8.166,7.281v11.115q-.98.064-1.965.064A29.577,29.577,0,0,1,4382.834,22247.611Zm-97.194-10.205a28.1,28.1,0,0,1-10.923-19,29.551,29.551,0,0,1,21.541,5.82,28.063,28.063,0,0,1,10.9,19.021,30.2,30.2,0,0,1-3.6.221A29.437,29.437,0,0,1,4285.64,22237.406Zm108.191-14.762a29.307,29.307,0,0,1,6.167-2.264v10.313A28.274,28.274,0,0,1,4393.831,22222.645Zm-64.2-14.492a28.3,28.3,0,0,1,12.583-17.979,27.475,27.475,0,0,1,4.264,21.365,28.1,28.1,0,0,1-12.6,17.973A27.585,27.585,0,0,1,4329.633,22208.152Zm-31.445,6.189a27.722,27.722,0,0,1-3.828-21.449,28.876,28.876,0,0,1,18.335,12.451,27.539,27.539,0,0,1,3.817,21.445A28.927,28.927,0,0,1,4298.188,22214.342Zm61.882-27.6a28.663,28.663,0,0,1,15.453-15.719,27.452,27.452,0,0,1,.578,21.768,28.467,28.467,0,0,1-15.448,15.713A27.483,27.483,0,0,1,4360.07,22186.742Zm-43.676-6.285a28.523,28.523,0,0,1,14.333-16.7,27.514,27.514,0,0,1,2.078,21.693,28.409,28.409,0,0,1-14.349,16.682A27.607,27.607,0,0,1,4316.394,22180.457Zm79.481-3.754a28.575,28.575,0,0,1,4.123-3.586v21.133a29.741,29.741,0,0,1-11.857,2.877A27.687,27.687,0,0,1,4395.875,22176.7Zm-45.148-18.67a28.837,28.837,0,0,1,16.9-14.225,27.427,27.427,0,0,1-1.512,21.711,28.706,28.706,0,0,1-16.926,14.23A27.521,27.521,0,0,1,4350.727,22158.033Zm33.857-6.02a11.154,11.154,0,1,1,15.414-12.484v20.637a28.335,28.335,0,0,1-10.889,13.168A27.638,27.638,0,0,1,4384.584,22152.014Z" transform="translate(-4229.569 -22133.197)" fill="#fff" stroke="rgba(0,0,0,0)" stroke-width="1" opacity="0.2" style="mix-blend-mode: overlay;isolation: isolate"/>
</svg>
