<svg xmlns="http://www.w3.org/2000/svg" width="170.932" height="315.885" viewBox="0 0 170.932 315.885">
  <path id="Intersection_4" data-name="Intersection 4" d="M4329.988,22477.883a27.227,27.227,0,0,1,6.526-19.506,29.3,29.3,0,0,1,19.746-10.15,27.407,27.407,0,0,1-6.444,20.662,29.034,29.034,0,0,1-13.849,8.994Zm-26.331,0a26.97,26.97,0,0,1,.426-13.861,28.112,28.112,0,0,1,13.947-16.859,27.17,27.17,0,0,1,2.588,21.436,27.615,27.615,0,0,1-4.835,9.285Zm59.664-22.506a28.414,28.414,0,0,1,14.893-16.078,27,27,0,0,1,1.354,21.521,28.323,28.323,0,0,1-14.9,16.07A26.953,26.953,0,0,1,4363.321,22455.377Zm-94.04-6.977a28,28,0,0,1,13.313-17.32,27.156,27.156,0,0,1,3.38,21.318,28.217,28.217,0,0,1-13.312,17.326A27.02,27.02,0,0,1,4269.281,22448.4Zm24.649-13.783a27.938,27.938,0,0,1,13.291-17.342,27.149,27.149,0,0,1,3.4,21.313,28.1,28.1,0,0,1-13.273,17.338A27,27,0,0,1,4293.93,22434.617Zm94.765,6.2a29.683,29.683,0,0,1,11.3-3.809v14.262A28.715,28.715,0,0,1,4388.695,22440.82Zm-66.95-11.68a11.807,11.807,0,1,1,8.7,19.865A27.411,27.411,0,0,1,4321.745,22429.141Zm24.961,10.574a27.99,27.99,0,0,1,12.871-17.623,29.838,29.838,0,0,1,22.067-3.576,28.172,28.172,0,0,1-12.894,17.621,29.792,29.792,0,0,1-15.459,4.3A30.1,30.1,0,0,1,4346.707,22439.715Zm-79.889-15.625a28.125,28.125,0,0,1,13.76-16.984,29.912,29.912,0,0,1,22.209-2.508,28.147,28.147,0,0,1-13.777,16.973,30,30,0,0,1-22.192,2.52Zm129.692-.2a6.347,6.347,0,1,1,0-12.684q1.756,0,3.488.09v12.707Q4398.27,22423.892,4396.509,22423.893Zm-144.375-25.5a29.342,29.342,0,0,1,19.978-9.7,27.4,27.4,0,0,1-6.92,20.5,29.452,29.452,0,0,1-19.966,9.7A27.183,27.183,0,0,1,4252.134,22398.4Zm60.573,14.875a6.184,6.184,0,0,1-1.161-8.9c16.745-20.637,41.955-32.467,69.181-32.467a90.674,90.674,0,0,1,19.27,2.061v13.064a77.164,77.164,0,0,0-19.27-2.43,75.131,75.131,0,0,0-58.744,27.564,6.812,6.812,0,0,1-9.276,1.109Zm58.433-5.826a28.68,28.68,0,0,1-16.371-14.7,29.9,29.9,0,0,1,22.345-.857,28.628,28.628,0,0,1,16.365,14.689,30.034,30.034,0,0,1-22.339.869Zm-91.916-16.893a29.065,29.065,0,0,1,18.941-11.461,29.742,29.742,0,0,1,21.779,4.9,29.145,29.145,0,0,1-18.947,11.455,29.929,29.929,0,0,1-21.773-4.895Zm-17.017-9.447a27.622,27.622,0,0,1,10.08-19.252,29.744,29.744,0,0,1,21.263-6.643,27.58,27.58,0,0,1-10.079,19.242,29.706,29.706,0,0,1-18.931,6.74C4263.76,22381.193,4262.984,22381.166,4262.208,22381.105Zm61.043-5.676a29.147,29.147,0,0,1-18.743-11.746,29.758,29.758,0,0,1,21.852-4.576,29,29,0,0,1,18.732,11.752,29.716,29.716,0,0,1-16.58,5.029A30.586,30.586,0,0,1,4323.251,22375.43Zm-89.249-3.465a27.789,27.789,0,0,1,11.971-18.213,29.756,29.756,0,0,1,21.835-4.607,27.944,27.944,0,0,1-11.959,18.205,29.915,29.915,0,0,1-16.688,5.059A30.567,30.567,0,0,1,4234,22371.965Zm119.041-6.834a28.449,28.449,0,0,1-14.791-16.16,29.874,29.874,0,0,1,22.316,1.232,28.233,28.233,0,0,1,14.785,16.17,30.051,30.051,0,0,1-22.311-1.242Zm-24.31-23.832a130.277,130.277,0,0,0-48.727,9.336,6.712,6.712,0,0,1-8.647-3.4,6.252,6.252,0,0,1,3.545-8.3,142.736,142.736,0,0,1,41.258-9.756,115.495,115.495,0,0,0,.334-91.367,6.251,6.251,0,0,1,3.607-8.266,6.715,6.715,0,0,1,8.63,3.473,129,129,0,0,1,5.3,15.064c12.178-24.455,36.663-42.314,65.964-45.889v12.8c-34.7,5.047-61.032,33.861-61.032,68.178a127.024,127.024,0,0,1-8.386,45.48,143.756,143.756,0,0,1,50.279,9.666,115.745,115.745,0,0,0-1.234-66.832,6.287,6.287,0,0,1,4.354-7.934,6.656,6.656,0,0,1,8.273,4.184c.2.621.374,1.25.572,1.877q3.631-.955,7.174-2.15v95.033A129.293,129.293,0,0,0,4328.733,22341.3Zm-98.451-7.148a29.827,29.827,0,1,1,20.884,7.711c-.277.01-.555.014-.833.014A29.678,29.678,0,0,1,4230.282,22334.15Zm58.189-12.986a28.022,28.022,0,0,1-12.7-17.752,29.891,29.891,0,0,1,22.005,3.824,27.858,27.858,0,0,1,12.684,17.734,30.058,30.058,0,0,1-6.308.668A29.547,29.547,0,0,1,4288.472,22321.164Zm49.593-.488a27.946,27.946,0,0,1,12.86-17.635,29.764,29.764,0,0,1,22.045-3.594,28.179,28.179,0,0,1-12.882,17.629,29.817,29.817,0,0,1-22.022,3.6Zm-87.244-3.061a28.488,28.488,0,0,1-15.2-15.824,30.008,30.008,0,0,1,22.345.717,28.359,28.359,0,0,1,15.181,15.824,29.989,29.989,0,0,1-22.322-.717Zm42.9-23.287a27.4,27.4,0,0,1-7.01-20.479,29.315,29.315,0,0,1,20.012,9.613,27.3,27.3,0,0,1,7,20.477A29.36,29.36,0,0,1,4293.721,22294.328Zm-36.694-1.834a28.271,28.271,0,0,1-14.089-16.742,29.914,29.914,0,0,1,22.243,2.125,28.209,28.209,0,0,1,14.083,16.748,29.941,29.941,0,0,1-22.237-2.131Zm92.12-23.65a29.025,29.025,0,0,1,18.766-11.7,27.177,27.177,0,0,1-4.6,21.1,28.968,28.968,0,0,1-18.771,11.7A27.072,27.072,0,0,1,4349.147,22268.844Zm-51.734-1.076a27.349,27.349,0,0,1-6.252-20.713,29.162,29.162,0,0,1,19.633,10.3,27.2,27.2,0,0,1,6.24,20.7A29.209,29.209,0,0,1,4297.413,22267.768Zm-35.913-6.617a27.171,27.171,0,0,1-2.662-21.408,28.785,28.785,0,0,1,17.628,13.244,27.027,27.027,0,0,1,2.656,21.408A28.762,28.762,0,0,1,4261.5,22261.15Zm121.333-14.369a27.964,27.964,0,0,1-13.075-17.484,29.809,29.809,0,0,1,22.073,3.357,28.433,28.433,0,0,1,8.166,7.211v11.006q-.98.064-1.965.064A29.8,29.8,0,0,1,4382.834,22246.781Zm-97.194-10.105a27.766,27.766,0,0,1-10.923-18.818,29.777,29.777,0,0,1,21.541,5.764,27.73,27.73,0,0,1,10.9,18.836,30.617,30.617,0,0,1-3.6.219A29.623,29.623,0,0,1,4285.64,22236.676Zm108.191-14.617a29.459,29.459,0,0,1,6.167-2.24v10.211A28.049,28.049,0,0,1,4393.831,22222.059Zm-64.2-14.35a28.026,28.026,0,0,1,12.583-17.8,26.993,26.993,0,0,1,4.264,21.156,27.837,27.837,0,0,1-12.6,17.8A27.1,27.1,0,0,1,4329.633,22207.709Zm-31.445,6.129a27.225,27.225,0,0,1-3.828-21.238,28.88,28.88,0,0,1,18.335,12.328,27.045,27.045,0,0,1,3.817,21.234A28.932,28.932,0,0,1,4298.188,22213.838Zm61.882-27.33a28.524,28.524,0,0,1,15.453-15.564,26.94,26.94,0,0,1,.578,21.555,28.322,28.322,0,0,1-15.448,15.559A26.97,26.97,0,0,1,4360.07,22186.508Zm-43.676-6.223a28.327,28.327,0,0,1,14.333-16.535,27.006,27.006,0,0,1,2.078,21.48,28.214,28.214,0,0,1-14.349,16.518A27.1,27.1,0,0,1,4316.394,22180.285Zm79.481-3.717a28.554,28.554,0,0,1,4.123-3.551v20.926a29.97,29.97,0,0,1-11.857,2.848A27.262,27.262,0,0,1,4395.875,22176.568Zm-47.126-13.57h18.512q-.5,1.26-1.143,2.5a28.638,28.638,0,0,1-16.926,14.092A26.951,26.951,0,0,1,4348.749,22163Zm35.877,0h14.044a28.354,28.354,0,0,1-9.562,10.234A27.527,27.527,0,0,1,4384.626,22163Z" transform="translate(-4229.565 -22162.498)" fill="#ff405a" stroke="rgba(0,0,0,0)" stroke-width="1" opacity="0.1"/>
</svg>
