<?xml version="1.0" encoding="utf-8"?>
<!-- Generator: Adobe Illustrator 26.0.2, SVG Export Plug-In . SVG Version: 6.00 Build 0)  -->
<svg version="1.1" id="Layer_1" xmlns="http://www.w3.org/2000/svg" xmlns:xlink="http://www.w3.org/1999/xlink" x="0px" y="0px"
	 viewBox="0 0 512 512" style="enable-background:new 0 0 512 512;" xml:space="preserve">
<style type="text/css">
	.st0{fill:#22263D;}
	.st1{fill:#FFFFFF;}
</style>
<g>
	<path id="Path_2" class="st0" d="M50.1,406.3l-2.7,0.2c-0.1-2.9-0.5-5.8-1.1-8.7c-0.4-1.9-1.1-3.7-2.1-5.3c-0.8-1.2-2-2.1-3.3-2.6
		c-1.5-0.5-3-0.7-4.6-0.7h-7.6v41.3c0,2.1,2,3.1,6.1,3.1v2.4H15.5v-2.4c4,0,6.1-1,6.1-3.1v-41.3h-7.7c-1.6,0-3.1,0.2-4.6,0.7
		c-1.3,0.5-2.5,1.4-3.3,2.6c-1,1.6-1.7,3.4-2.1,5.3c-0.6,2.9-1,5.8-1.2,8.7L0,406.3v-20.8h50.1L50.1,406.3z"/>
	<path id="Path_3" class="st0" d="M71.4,408c1.2-2.3,3-4.2,5.2-5.6c1.9-1.1,4-1.7,6.1-1.7c1,0,2,0.2,2.9,0.4c1,0.3,1.9,0.8,2.7,1.4
		c0.9,0.7,1.5,1.5,2,2.5c0.6,1.2,0.8,2.5,0.8,3.8c0.1,1.2-0.3,2.3-1.1,3.2c-1.8,1.5-4.4,1.6-6.3,0.1c-0.7-0.7-1.1-1.6-1.1-2.6
		c0-1,0.4-2,1.2-2.7c1-0.7,2.2-1.1,3.5-1c-0.4-0.8-1.1-1.4-2-1.8c-1-0.4-2.1-0.6-3.1-0.6c-0.9,0-1.7,0.1-2.6,0.4
		c-1,0.3-2,0.8-2.8,1.5c-1.1,0.9-2,1.9-2.9,3.1c-1.1,1.5-2,3.2-2.7,4.9v17.1c0,2,2.3,3.1,6.8,3.1v2.4H59.3v-2.4c4,0,6-1,6-3.1v-23.8
		c0-2.1-2-3.1-6-3.1v-2.2h12.1L71.4,408z"/>
	<path id="Path_4" class="st0" d="M138.4,430.6c0,2,1.7,3.1,5.2,3.1v2.3h-11.4v-6.9c-0.6,1-1.4,1.9-2.2,2.7c-0.9,0.9-2,1.7-3.1,2.4
		c-1.2,0.8-2.6,1.3-3.9,1.8c-1.6,0.5-3.2,0.7-4.8,0.7c-2.8,0.2-5.7-0.6-8-2.3c-1.9-2.1-2.9-5-2.6-7.9v-19.7c0-2.1-2-3.1-6-3.1v-2.2
		h12.1v24.7c-0.2,2.1,0.3,4.1,1.3,5.9c1.1,1.2,2.7,1.8,4.3,1.7c1.3,0,2.6-0.3,3.8-0.7c1.3-0.5,2.5-1.2,3.6-2.1
		c2.3-1.9,4.2-4.2,5.5-6.8v-17.4c0-2.1-2.2-3.1-6.7-3.1v-2.2h13L138.4,430.6z"/>
	<path id="Path_5" class="st0" d="M182,414.4l-2.5,0.5c-0.2-3.2-1.6-6.2-4-8.4c-2.6-2-5.8-3.1-9.1-2.9c-1.8,0-3.6,0.4-5.3,1.2
		c-1.4,0.8-2.3,2.3-2.2,3.9c-0.1,1.5,0.6,2.9,1.8,3.8c1.4,0.9,2.9,1.6,4.6,2c1.8,0.5,3.8,0.9,5.9,1.3c2,0.3,4,0.9,5.9,1.7
		c1.7,0.7,3.3,1.8,4.6,3.2c1.3,1.6,1.9,3.7,1.8,5.7c0.2,2.9-1.1,5.7-3.3,7.5c-2.9,1.9-6.3,2.8-9.7,2.6c-2,0-4.1-0.2-6-0.7
		c-1.8-0.4-3.4-1.3-4.8-2.4c-0.3-0.2-0.7-0.5-1.1-0.7c-0.3-0.2-0.7-0.3-1.1-0.4c-0.3,0-0.6,0.1-0.7,0.3c-0.2,0.3-0.3,0.7-0.3,1.1
		l-0.5,2.4h-2.5v-13.9l2.5-0.4c0.2,1.7,0.7,3.4,1.6,4.9c0.8,1.5,1.9,2.7,3.2,3.8c1.3,1.1,2.8,1.9,4.4,2.4c1.7,0.6,3.4,0.9,5.2,0.9
		c2.2,0.2,4.4-0.4,6.2-1.6c1.2-1,1.9-2.5,1.9-4.1c0.1-1.1-0.3-2.2-1.1-3.1c-0.8-0.8-1.7-1.5-2.8-1.9c-1.3-0.5-2.6-0.9-3.9-1.2
		c-1.5-0.3-3-0.6-4.5-1c-1.5-0.3-3.1-0.7-4.5-1.2c-1.4-0.4-2.7-1-3.9-1.9c-1.1-0.8-2.1-1.8-2.8-3c-0.8-1.4-1.1-3.1-1.1-4.7
		c-0.1-2.7,1.1-5.3,3.2-7c2.8-1.9,6.1-2.7,9.4-2.5c1.8,0,3.6,0.3,5.3,0.8c1.6,0.4,3.1,1.1,4.5,2.1c0.3,0.3,0.7,0.6,1.1,0.8
		c0.3,0.2,0.7,0.3,1.1,0.3c0.5,0,0.8-0.3,1-1l0.3-2.4h2.5L182,414.4z"/>
	<path id="Path_6" class="st0" d="M205.3,401.4h9.3l-0.3,3.9c-1.4-0.3-2.8-0.5-4.1-0.6c-1.4-0.1-3-0.2-4.8-0.2v25.8
		c0,2,1.1,3.1,3.4,3.1c0.9,0.1,1.7-0.3,2.3-0.9c0.5-0.6,0.7-1.4,0.7-2.1v-4.6h2.6v3.9c0,0.9-0.1,1.8-0.2,2.7c-0.1,0.8-0.5,1.5-1,2.1
		c-0.6,0.7-1.3,1.2-2.1,1.4c-1.2,0.4-2.4,0.5-3.6,0.5c-2.3,0.2-4.5-0.6-6.2-2.1c-1.4-1.7-2.1-3.8-2-6v-23.7h-6.1v-2.4
		c1.2-0.1,2.4-0.3,3.5-0.5c1-0.2,1.9-0.8,2.7-1.5c0.8-0.8,1.4-1.8,1.7-2.8c0.5-1.5,0.7-3.1,0.6-4.7v-1.5l3.7-0.5L205.3,401.4z"/>
	<path id="Path_7" class="st0" d="M316.2,387.8c-4.1,0-6.1,1-6.1,3.1v39.5c0,2.1,2,3.1,6.1,3.1v2.4H297v-2.4c4,0,6.1-1,6.1-3.1
		v-38.8L285.8,436h-6.5l-17.2-44.4v38.8c0,2.1,2,3.1,6.1,3.1v2.4H252v-2.4c4,0,6.1-1,6.1-3.1V391c0-2.1-2-3.1-6.1-3.1v-2.4h15.8
		l16.7,44.1l16.7-44.1h15.1L316.2,387.8z"/>
	<path id="Path_8" class="st0" d="M344.7,400c2.3,0,4.7,0.3,6.9,1c4.4,1.2,8,4.5,9.5,8.8c1,2.8,1.5,5.7,1.4,8.7
		c0,2.6-0.4,5.2-1.2,7.7c-0.8,2.2-2,4.2-3.6,5.9c-1.6,1.7-3.6,3-5.8,3.8c-2.5,0.9-5.2,1.4-8,1.3c-2.3,0-4.6-0.3-6.8-0.9
		c-2.1-0.6-4-1.6-5.6-3c-1.7-1.5-3-3.4-3.9-5.5c-1-2.7-1.5-5.5-1.4-8.4c0-2.7,0.4-5.4,1.2-7.9c0.7-2.3,1.9-4.3,3.4-6.1
		c1.6-1.7,3.6-3.1,5.7-3.9C339.2,400.4,342,400,344.7,400z M344.8,402.9c-1.9,0-3.8,0.3-5.5,1.1c-1.5,0.7-2.8,1.7-3.9,3
		c-1.1,1.3-1.8,2.9-2.3,4.5c-0.5,1.9-0.8,3.8-0.7,5.7c-0.1,2.8,0.2,5.6,0.9,8.4c0.4,1.9,1.2,3.7,2.4,5.3c0.9,1.2,2.2,2.2,3.6,2.7
		c1.5,0.5,3.1,0.8,4.7,0.8c2,0.1,4-0.3,5.8-1.2c1.5-0.7,2.8-1.8,3.8-3.2c1-1.5,1.7-3.1,2.1-4.9c0.4-2,0.7-4,0.6-6.1
		c0.1-2.6-0.2-5.3-0.9-7.9c-0.5-1.8-1.3-3.5-2.4-4.9c-1-1.2-2.2-2.1-3.7-2.6C347.9,403.1,346.3,402.9,344.8,402.9L344.8,402.9z"/>
	<path id="Path_9" class="st0" d="M410.8,430.6c0,2,2,3.1,6.1,3.1v2.4h-17.5v-2.4c3.5,0,5.3-1,5.3-3.1v-19.3
		c0.2-2.1-0.3-4.2-1.6-5.9c-1-1.1-2.5-1.8-4.1-1.7c-1.4,0-2.8,0.3-4.2,0.8c-1.5,0.6-2.9,1.3-4.2,2.1c-1.3,0.9-2.6,1.9-3.7,3.1
		c-1.1,1.1-2,2.3-2.7,3.6v17.4c0,2,1.8,3.1,5.3,3.1v2.4h-17.4v-2.4c4,0,6-1,6-3.1v-23.8c0-2.1-2-3.1-6-3.1v-2.2h12.1v6.9
		c2-2.1,4.3-3.9,6.8-5.3c2.7-1.5,5.8-2.3,8.9-2.3c2.8-0.1,5.5,0.7,7.8,2.3c2.1,2,3.2,4.9,2.9,7.8L410.8,430.6z"/>
	<path id="Path_10" class="st0" d="M433.5,417.6c-0.2,4.3,0.8,8.5,2.9,12.2c1.9,2.9,5.2,4.7,8.6,4.5c2.8,0,5.5-0.7,7.9-2.1
		c2.5-1.7,4.2-4.2,4.8-7.2l2.7,1c-0.5,1.5-1.1,2.9-1.9,4.2c-0.8,1.3-1.8,2.5-3,3.5c-1.3,1.1-2.8,1.9-4.4,2.4c-1.9,0.6-4,1-6.1,0.9
		c-2.1,0-4.2-0.3-6.3-0.8c-2.1-0.5-4-1.5-5.7-2.9c-1.8-1.5-3.2-3.5-4.1-5.7c-2-5.3-2.1-11.2-0.4-16.6c0.8-2.2,2-4.2,3.5-5.9
		c1.6-1.7,3.5-3,5.7-3.8c2.4-0.9,5-1.4,7.7-1.4c4.5-0.3,9,1.4,12.2,4.6c3,3.6,4.4,8.3,4.1,13L433.5,417.6z M455.4,415
		c0.2-3.2-0.8-6.3-2.7-8.8c-1.9-2.2-4.7-3.5-7.6-3.3c-1.4,0-2.8,0.2-4.1,0.7c-1.3,0.4-2.5,1.2-3.5,2.1c-1.1,1.1-2,2.3-2.6,3.7
		c-0.7,1.8-1.2,3.7-1.3,5.6L455.4,415z"/>
	<path id="Path_11" class="st0" d="M512,403.6c-1.2-0.1-2.4,0.1-3.5,0.6c-0.8,0.3-1.4,1-1.8,1.7l-15.9,37.5
		c-0.5,1.2-1.1,2.4-1.8,3.5c-0.5,0.9-1.2,1.7-2,2.4c-0.8,0.6-1.7,1.1-2.7,1.4c-1.2,0.3-2.4,0.5-3.6,0.5c-2.7,0.2-5.3-0.7-7.4-2.3
		c-1.7-1.4-2.7-3.4-2.7-5.6c0-0.5,0.1-1,0.2-1.5c0.1-0.5,0.3-1,0.6-1.4c0.3-0.4,0.7-0.8,1.2-1.1c0.6-0.3,1.3-0.4,1.9-0.4
		c2.1-0.3,3.9,1.2,4.2,3.3c0,0.2,0,0.3,0,0.5c0.1,1-0.3,1.9-1,2.6c-0.7,0.6-1.6,1-2.6,1.2c0.5,0.7,1.1,1.3,1.9,1.7
		c1.3,0.6,2.7,0.8,4.1,0.7c1.3,0,2.6-0.5,3.5-1.4c1.3-1.2,2.3-2.8,2.9-4.5l1.7-4.4L475.6,406c-0.7-1.6-2.3-2.4-5-2.4v-2.2h18v2.2
		h-4.4c-1.4,0-2,0.4-2,1.2c0,0.4,0.1,0.8,0.2,1.2l10.3,25.4l10.5-24.9c0.1-0.3,0.2-0.6,0.2-1c0-1.3-1.1-2-3.2-2h-2.8v-2.2H512
		L512,403.6z"/>
	<path class="st0" d="M0,467h4.3v33.6H0V467z"/>
	<path class="st0" d="M13.1,475.8h3.5l0.4,3.6h0.2c2.4-2.4,4.9-4.2,8.4-4.2c5.3,0,7.6,3.4,7.6,9.7v15.8h-4.3v-15.2
		c0-4.7-1.4-6.6-4.7-6.6c-2.5,0-4.3,1.3-6.8,3.8v18h-4.3V475.8z"/>
	<path class="st0" d="M51.8,467h9.6c7.5,0,12.7,2.5,12.7,9.9c0,7.1-5.1,10.4-12.5,10.4h-5.5v13.3h-4.3V467z M61,483.9
		c5.8,0,8.7-2.2,8.7-6.9c0-4.8-3-6.4-8.9-6.4h-4.8v13.3H61z"/>
	<path class="st0" d="M76.7,494.2c0-5.5,4.6-8.2,15.3-9.4c-0.1-3.1-1.1-6.2-5.1-6.2c-2.9,0-5.5,1.3-7.4,2.6l-1.6-2.9
		c2.3-1.5,5.8-3.2,9.8-3.2c6,0,8.7,4,8.7,10.2v15.3h-3.5l-0.4-3h-0.2c-2.4,2-5.1,3.6-8.2,3.6C79.8,501.3,76.7,498.7,76.7,494.2z
		 M91.9,494.6v-6.8c-8.4,1-11.1,2.9-11.1,6.1c0,2.8,1.9,3.8,4.3,3.8C87.5,497.8,89.5,496.7,91.9,494.6z"/>
	<path class="st0" d="M104,475.8h3.5l0.4,4.5h0.2c1.7-3.1,4.3-5.1,7.1-5.1c1.1,0,1.9,0.2,2.7,0.5l-0.9,3.6c-0.7-0.2-1.3-0.3-2.3-0.3
		c-2.1,0-4.6,1.5-6.3,5.7v16H104V475.8z"/>
	<path class="st0" d="M122.6,492.9v-13.7h-3.7V476l3.9-0.3l0.5-8h3.5v8h6.8v3.4h-6.8V493c0,3,1,4.8,3.8,4.8c0.9,0,1.8-0.2,2.9-0.6
		l0.9,3c-1.3,0.6-3,1.1-4.7,1.1C124.4,501.3,122.6,497.9,122.6,492.9z"/>
	<path class="st0" d="M139.2,475.8h3.5l0.4,3.6h0.2c2.4-2.4,4.9-4.2,8.4-4.2c5.3,0,7.6,3.4,7.6,9.7v15.8H155v-15.2
		c0-4.7-1.4-6.6-4.7-6.6c-2.5,0-4.3,1.3-6.8,3.8v18h-4.3V475.8z"/>
	<path class="st0" d="M165.4,488.2c0-8.1,5.5-13.1,11.2-13.1c6.4,0,10,4.5,10,11.7c0,0.9-0.1,1.7-0.2,2.5h-16.8
		c0.4,5.1,3.5,8.5,8.2,8.5c2.4,0,4.5-0.7,6.3-1.8l1.5,2.7c-2.2,1.5-4.8,2.6-8.3,2.6C170.6,501.3,165.4,496.5,165.4,488.2z
		 M182.8,486.1c0-4.9-2.3-7.5-6.1-7.5c-3.5,0-6.6,2.8-7.1,7.5H182.8z"/>
	<path class="st0" d="M192.7,475.8h3.5l0.4,4.5h0.2c1.7-3.1,4.3-5.1,7.1-5.1c1.1,0,1.9,0.2,2.7,0.5l-0.9,3.6
		c-0.7-0.2-1.3-0.3-2.3-0.3c-2.1,0-4.6,1.5-6.3,5.7v16h-4.3V475.8z"/>
	<path class="st0" d="M207.5,497.7l1.9-2.5c2.2,1.8,4.4,2.7,7.5,2.7c3.3,0,4.9-1.7,4.9-3.8c0-2.6-2.8-3.6-5.6-4.7
		c-3.7-1.3-7.3-3.1-7.3-7.2c0-4,3.2-7.1,8.6-7.1c3.1,0,5.8,1.2,7.7,2.8l-1.9,2.5c-1.7-1.3-3.5-2-5.7-2c-3.2,0-4.6,1.7-4.6,3.6
		c0,2.3,2.2,3.2,5.3,4.3c3.9,1.4,7.6,3.1,7.6,7.6c0,4-3.2,7.4-9.1,7.4C213.2,501.3,209.8,500,207.5,497.7z"/>
	<path class="st0" d="M231.8,464.2h4.3v9.9l-0.2,5.1c2.3-2.3,4.8-4.1,8.3-4.1c5.3,0,7.6,3.4,7.6,9.7v15.8h-4.3v-15.2
		c0-4.7-1.4-6.6-4.7-6.6c-2.5,0-4.3,1.3-6.8,3.8v18h-4.3V464.2z"/>
	<path class="st0" d="M259,467.9c0-1.6,1.2-2.8,2.8-2.8c1.6,0,2.8,1.1,2.8,2.8c0,1.7-1.2,2.8-2.8,2.8
		C260.1,470.6,259,469.5,259,467.9z M259.6,475.8h4.3v24.9h-4.3V475.8z"/>
	<path class="st0" d="M272.3,475.8h3.5l0.4,2.9h0.2c2.3-1.9,5.1-3.5,7.9-3.5c6.4,0,9.9,5,9.9,12.7c0,8.5-5.1,13.4-10.8,13.4
		c-2.3,0-4.6-1.1-6.9-2.9l0.1,4.4v8.4h-4.3V475.8z M289.7,487.9c0-5.5-1.9-9.1-6.6-9.1c-2.1,0-4.2,1.1-6.6,3.4v13
		c2.3,1.9,4.4,2.6,6.1,2.6C286.7,497.7,289.7,494,289.7,487.9z"/>
	<path class="st0" d="M308,475.8h4.4l3.6,14.5c0.6,2.3,1.1,4.4,1.5,7.1h0.2c0.5-2.7,1-4.8,1.5-7.1l3.7-14.5h4.6l3.8,14.5
		c0.6,2.3,1.1,4.4,1.6,7.1h0.2c0.5-2.7,0.9-4.8,1.5-7.1l3.6-14.5h4l-6.7,24.9h-5.4l-3.4-13.4c-0.6-2.3-1.1-4.5-1.6-7.4H325
		c-0.5,2.9-0.9,5.1-1.6,7.4l-3.3,13.4H315L308,475.8z"/>
	<path class="st0" d="M347.1,467.9c0-1.6,1.2-2.8,2.8-2.8s2.8,1.1,2.8,2.8c0,1.7-1.2,2.8-2.8,2.8S347.1,469.5,347.1,467.9z
		 M347.8,475.8h4.3v24.9h-4.3V475.8z"/>
	<path class="st0" d="M361.1,492.9v-13.7h-3.7V476l3.9-0.3l0.5-8h3.5v8h6.8v3.4h-6.8V493c0,3,1,4.8,3.8,4.8c0.9,0,1.8-0.2,2.9-0.6
		l0.9,3c-1.3,0.6-3,1.1-4.7,1.1C362.9,501.3,361.1,497.9,361.1,492.9z"/>
	<path class="st0" d="M377.8,464.2h4.3v9.9l-0.2,5.1c2.3-2.3,4.8-4.1,8.3-4.1c5.3,0,7.6,3.4,7.6,9.7v15.8h-4.3v-15.2
		c0-4.7-1.4-6.6-4.7-6.6c-2.5,0-4.3,1.3-6.8,3.8v18h-4.3V464.2z"/>
	<path class="st0" d="M416.6,492.9v-13.7h-3.7V476l3.9-0.3l0.5-8h3.5v8h6.8v3.4h-6.8V493c0,3,1,4.8,3.8,4.8c0.9,0,1.8-0.2,2.9-0.6
		l0.9,3c-1.3,0.6-3,1.1-4.7,1.1C418.4,501.3,416.6,497.9,416.6,492.9z"/>
	<path class="st0" d="M433.3,475.8h3.5l0.4,4.5h0.2c1.7-3.1,4.3-5.1,7.1-5.1c1.1,0,1.9,0.2,2.7,0.5l-0.9,3.6
		c-0.7-0.2-1.3-0.3-2.3-0.3c-2.1,0-4.6,1.5-6.3,5.7v16h-4.3V475.8z"/>
	<path class="st0" d="M450.8,491.5v-15.8h4.3V491c0,4.6,1.4,6.6,4.7,6.6c2.5,0,4.3-1.3,6.6-4.2v-17.6h4.3v24.9h-3.5l-0.4-3.9h-0.2
		c-2.3,2.7-4.8,4.5-8.2,4.5C453.1,501.3,450.8,497.9,450.8,491.5z"/>
	<path class="st0" d="M476.2,497.7l1.9-2.5c2.2,1.8,4.4,2.7,7.5,2.7c3.3,0,4.9-1.7,4.9-3.8c0-2.6-2.8-3.6-5.6-4.7
		c-3.7-1.3-7.3-3.1-7.3-7.2c0-4,3.2-7.1,8.6-7.1c3.1,0,5.8,1.2,7.7,2.8l-1.9,2.5c-1.7-1.3-3.5-2-5.7-2c-3.2,0-4.6,1.7-4.6,3.6
		c0,2.3,2.2,3.2,5.3,4.3c3.9,1.4,7.6,3.1,7.6,7.6c0,4-3.2,7.4-9.1,7.4C481.9,501.3,478.5,500,476.2,497.7z"/>
	<path class="st0" d="M500.2,492.9v-13.7h-3.7V476l3.9-0.3l0.5-8h3.5v8h6.8v3.4h-6.8V493c0,3,1,4.8,3.8,4.8c0.9,0,1.8-0.2,2.9-0.6
		l0.9,3c-1.3,0.6-3,1.1-4.7,1.1C502,501.3,500.2,497.9,500.2,492.9z"/>
	<path class="st0" d="M408.2,178.1c-0.3,0.6-0.6,1-1,1.5c-0.2,0.2-0.3,0.3-0.5,0.5c-1.5,1.2-3.5,1.6-5.4,0.8
		c-40-16.2-85.9-5.8-115,26c10.6-5.8,22.4-8.8,34.5-8.8c21.5-0.1,41.8,9.5,55.3,26.2c0,0.1,0.1,0.1,0.1,0.2c1.6,2.2,1.2,5.4-1.1,7
		c-2.3,1.7-5.6,1.3-7.4-0.9c-7-8.6-16.3-15.1-26.7-18.8c-31.4-11.1-65.9,5.4-77,36.8c-0.7,2.9-1.3,5.8-1.7,8.8
		c8.9-17,26.6-27.6,45.8-27.5c0.1,0,0.3,0,0.4,0c2.8,0.1,5,2.5,4.9,5.3c-0.1,2.8-2.5,5-5.3,4.9c-22.1-0.3-40.3,17.3-40.7,39.4
		c0,10,3.9,19.5,10.8,26.7c11.3,11.2,26.6,17.4,42.5,17.4c2.8,0,5.1,2.3,5.1,5.1c0,2.8-2.3,5.1-5.1,5.1c-16.3,0-32.1-5.5-44.8-15.7
		c-0.3-0.1-0.5-0.3-0.7-0.5c-1.3-1.1-2.6-2.2-3.7-3.4c5,9.9,11.6,18.9,19.6,26.5c0.1,0,0.1,0.1,0.2,0.1c1.9,2,1.9,5.2-0.1,7.1
		c-2.1,2-5.4,2-7.5,0c-12.7-12.1-22.2-27.1-27.7-43.8c-5.5,16.6-15,31.7-27.7,43.8c-2.1,2-5.4,2-7.5,0c-0.1-0.1-0.1-0.1-0.1-0.1
		c-1.9-2-1.8-5.2,0.2-7.1c8-7.7,14.6-16.6,19.7-26.5c-1.2,1.2-2.4,2.3-3.7,3.4c-0.2,0.2-0.5,0.3-0.7,0.5
		c-12.7,10.2-28.5,15.8-44.8,15.7c-2.8,0-5.1-2.3-5.1-5.1c0-2.8,2.3-5.1,5.1-5.1c15.9,0.1,31.2-6.2,42.5-17.3
		c6.9-7.2,10.8-16.8,10.9-26.8c-0.4-22.1-18.6-39.8-40.7-39.4c-0.1,0-0.3,0-0.4,0c-2.8-0.1-5-2.5-4.9-5.3c0.1-2.8,2.5-5,5.3-4.9
		c19.2-0.1,36.9,10.5,45.8,27.5c-0.4-3-1-5.9-1.7-8.8c-3.7-10.5-10.2-19.7-18.8-26.7c-25.9-21-63.8-17.1-84.9,8.7
		c-1.8,2.2-5.1,2.6-7.4,0.9c-0.1,0-0.1-0.1-0.2-0.1c-2.2-1.7-2.5-4.9-0.8-7.1c13.5-16.7,33.9-26.4,55.3-26.2c12.1,0,23.9,3,34.5,8.8
		c-29.2-31.8-75-42.2-115-26c-2.7,1.1-5.7-0.1-6.9-2.7c0-0.1,0-0.1-0.1-0.2c-1-2.6,0.3-5.5,2.9-6.5c10.5-4.3,21.7-6.9,33-7.9
		c10.1-23.5,10.2-50.2,0.3-73.8c0,0,0-0.1-0.1-0.1c-1-2.6,0.3-5.5,2.9-6.5c2.7-1.1,5.7,0.2,6.9,2.8c1.7,4,3.1,8,4.2,12.2
		c11-21.9,32.8-36.2,57.3-37.5c2.9-0.2,5.4,1.9,5.6,4.8c0,0,0,0,0,0.1c0.1,2.9-2.1,5.2-5,5.4c-29.9,1.3-53.5,25.7-54,55.6
		c0,12.5-2.3,25-6.7,36.7c13.8,0.1,27.4,2.8,40.2,7.8c4.9-17.7,4.6-36.5-1-54c0,0,0-0.1,0-0.1c-0.8-2.7,0.8-5.5,3.5-6.3
		c2.8-0.9,5.7,0.6,6.6,3.4c0.2,0.5,0.3,1,0.5,1.5c20.8-5.5,38.9-18.5,50.6-36.6c0.8-1.1,1.9-1.9,3.3-2.2c2.2-0.5,4.4,0.4,5.7,2.2
		c11.8,18,29.8,31.1,50.6,36.6c0.2-0.5,0.3-1,0.5-1.5c0.9-2.7,3.9-4.2,6.6-3.4c0,0,0.1,0,0.1,0c2.7,0.8,4.2,3.7,3.3,6.4
		c-5.6,17.5-5.9,36.3-1,54c12.8-5,26.4-7.7,40.2-7.8c-4.4-11.7-6.7-24.2-6.7-36.7c-0.5-29.9-24.1-54.2-54-55.6c-0.1,0-0.2,0-0.4,0
		c-2.8-0.3-4.9-2.8-4.6-5.6c0.3-2.8,2.8-4.9,5.6-4.6c24.4,1.3,46.3,15.6,57.3,37.5c1.2-4.1,2.6-8.2,4.2-12.2
		c1.2-2.6,4.2-3.9,6.9-2.8c0,0,0.1,0,0.1,0.1c2.6,1.1,3.8,4,2.8,6.6c-10,23.6-9.9,50.3,0.3,73.8c11.3,1,22.5,3.6,33,7.9
		c0.1,0,0.1,0,0.2,0.1C408.1,172.5,409.3,175.5,408.2,178.1z"/>
	<path class="st0" d="M130.4,224.4c-6-1.7-12.3-0.9-17.8,2c-5.4,2.9-9.3,7.9-11,13.7c6,1.7,12.3,0.9,17.7-2
		C124.7,235.2,128.7,230.3,130.4,224.4L130.4,224.4z"/>
	<path class="st0" d="M178.8,265.4c-2.1,5.7-1.7,12,1.1,17.4c5.6-2.6,9.8-7.2,11.9-13c2-5.7,1.7-12-1.1-17.4
		C185.2,255,180.9,259.7,178.8,265.4L178.8,265.4z"/>
	<path class="st0" d="M157.4,267.9c-3.9,4.6-5.8,10.6-5.1,16.7c6.1-0.6,11.8-3.5,15.8-8.2c3.9-4.6,5.8-10.7,5.2-16.7
		C167,260.2,161.3,263.1,157.4,267.9L157.4,267.9z"/>
	<path class="st0" d="M136.6,251.9c1.5-5.9,0.5-12.1-2.7-17.2c-5.3,3-9.1,8.1-10.6,14c-1.5,5.9-0.5,12.1,2.7,17.2
		C131.3,262.8,135.1,257.8,136.6,251.9L136.6,251.9z"/>
	<path class="st0" d="M159.3,245.9c-0.2-6-3-11.7-7.5-15.7c-4.2,4.4-6.4,10.4-6.2,16.5c0.2,6,3,11.7,7.5,15.7
		C157.4,257.9,159.6,252,159.3,245.9L159.3,245.9z"/>
	<path class="st0" d="M131.4,272.4c-1.7,5.8-1,12.1,2.1,17.3c5.4-2.9,9.4-7.8,11.2-13.6c1.7-5.8,1-12.1-2.1-17.3
		C137.2,261.6,133.2,266.5,131.4,272.4L131.4,272.4z"/>
	<path class="st0" d="M175.8,238.6c-5.2,3.2-8.9,8.3-10.3,14.2c6,1.4,12.4,0.3,17.6-2.9c5.2-3.2,8.9-8.3,10.3-14.2
		C187.4,234.3,181.1,235.3,175.8,238.6L175.8,238.6z"/>
	<path class="st0" d="M189.8,214.2c-5.8-2.1-12.2-1.9-17.9,0.7c2.6,5.5,7.3,9.8,13.1,11.9c5.8,2.1,12.2,1.8,17.9-0.7
		C200.3,220.5,195.6,216.2,189.8,214.2L189.8,214.2z"/>
	<path class="st0" d="M232.3,37.7c-5.5,2.7-9.6,7.5-11.6,13.3c5.9,1.9,12.3,1.4,17.8-1.4c5.5-2.7,9.7-7.5,11.6-13.3
		C244.3,34.5,237.9,34.9,232.3,37.7L232.3,37.7z"/>
	<path class="st0" d="M239.2,62.2c-5.2-3.3-11.6-4.4-17.6-3.1c1.3,6,5,11.1,10.1,14.3c5.2,3.3,11.5,4.4,17.6,3.1
		C248,70.5,244.4,65.3,239.2,62.2L239.2,62.2z"/>
	<path class="st0" d="M216.7,251.1c-6-1.5-12.4-0.6-17.7,2.6c3.2,5.2,8.3,9,14.3,10.4c6,1.5,12.4,0.5,17.7-2.6
		C227.9,256.3,222.7,252.5,216.7,251.1L216.7,251.1z"/>
	<path class="st0" d="M221,75.7c-5.9-1.9-12.3-1.4-17.8,1.3c2.8,5.4,7.7,9.5,13.5,11.4c5.9,1.9,12.3,1.4,17.8-1.3
		C231.7,81.6,226.9,77.5,221,75.7L221,75.7z"/>
	<path class="st0" d="M102.4,179.6c-6.1-1.1-12.4,0.2-17.5,3.7c-5.1,3.4-8.5,8.7-9.6,14.7c6.1,1.1,12.4-0.3,17.5-3.7
		C97.9,190.9,101.3,185.6,102.4,179.6L102.4,179.6z"/>
	<path class="st0" d="M141.3,80.3c1.4-5.9,0.3-12.1-3.1-17.1c-3.4-5.1-8.6-8.7-14.7-10c-1.4,5.9-0.3,12.1,3.1,17.2
		C130.1,75.5,135.3,79,141.3,80.3L141.3,80.3z"/>
	<path class="st0" d="M116.6,88.8c4.9,3.7,11.1,5.4,17.2,4.7c-0.7-6-3.9-11.5-8.7-15.2c-4.9-3.7-11.1-5.4-17.2-4.7
		C108.7,79.6,111.8,85.1,116.6,88.8L116.6,88.8z"/>
	<path class="st0" d="M154.4,47.2c1.9-5.8,1.3-12-1.7-17.3c-5.5,2.7-9.6,7.5-11.5,13.4c-1.8,5.8-1.2,12,1.7,17.3
		C148.4,57.8,152.5,53,154.4,47.2L154.4,47.2z"/>
	<path class="st0" d="M181,31.3c2.8-5.4,3.2-11.7,1.2-17.4c-5.8,1.8-10.7,5.9-13.5,11.4c-2.8,5.4-3.2,11.7-1.2,17.4
		C173.3,40.8,178.2,36.7,181,31.3L181,31.3z"/>
	<path class="st0" d="M243.7,27.2c0.6-6-1.3-12-5.3-16.6c-4-4.7-9.7-7.6-15.8-8c-0.6,6,1.3,12,5.3,16.6
		C231.8,23.8,237.5,26.7,243.7,27.2L243.7,27.2z"/>
	<path class="st0" d="M155.2,82.5c5.2-3.2,8.8-8.4,10.1-14.4c1.3-5.9,0-12.1-3.4-17.1c-5.2,3.2-8.8,8.4-10.1,14.4
		C150.6,71.3,151.8,77.5,155.2,82.5L155.2,82.5z"/>
	<path class="st0" d="M176.2,48.3c-2.2,5.6-2.1,11.9,0.5,17.4c5.6-2.4,10.1-6.9,12.4-12.6c2.3-5.6,2.1-11.9-0.5-17.4
		C182.9,38.1,178.5,42.6,176.2,48.3L176.2,48.3z"/>
	<path class="st0" d="M103.5,259.8c-1.5,5.9-0.5,12.1,2.7,17.2c5.3-3.1,9.1-8.1,10.7-14c1.5-5.9,0.5-12.1-2.7-17.2
		C108.9,248.8,105.1,253.9,103.5,259.8L103.5,259.8z"/>
	<path class="st0" d="M93.7,133.9c5.5,2.9,11.9,3.5,17.8,1.7c-1.8-5.8-5.8-10.7-11.3-13.5c-5.5-2.9-11.9-3.5-17.8-1.7
		C84.3,126.2,88.4,131,93.7,133.9L93.7,133.9z"/>
	<path class="st0" d="M105.8,211.6c-6.1,0.4-11.9,3.2-16,7.8c-4,4.5-6,10.5-5.5,16.6c6.1-0.4,11.9-3.2,16-7.8
		C104.3,223.6,106.3,217.6,105.8,211.6L105.8,211.6z"/>
	<path class="st0" d="M105.3,166.6c-9.4-8.7-24.1-8.3-33,0.9c4.5,4.2,10.5,6.4,16.7,6.2C95.2,173.6,101.1,171,105.3,166.6
		L105.3,166.6z"/>
	<path class="st0" d="M88.8,154.2c5.7,2.5,12.1,2.7,17.9,0.6c-2.2-5.7-6.5-10.3-12.1-12.8c-5.7-2.5-12.1-2.7-17.9-0.6
		C78.8,147.1,83.2,151.7,88.8,154.2L88.8,154.2z"/>
	<path class="st0" d="M111.4,119.3c1.7-5.8,0.9-12.1-2.1-17.3c-3.1-5.3-8.2-9.1-14.1-10.7c-1.7,5.8-0.9,12.1,2.1,17.3
		C100.4,113.9,105.5,117.7,111.4,119.3L111.4,119.3z"/>
	<path class="st0" d="M141.7,122.2c0.7-6-1.1-12.1-5-16.7c-3.9-4.7-9.6-7.7-15.7-8.3c-0.7,6,1.1,12.1,5,16.7
		C130,118.6,135.6,121.6,141.7,122.2L141.7,122.2z"/>
	<path class="st0" d="M108.7,142.7c1.3,6,5,11.1,10.2,14.3c5.2,3.3,11.5,4.4,17.6,3.1c-1.3-6-5-11.1-10.1-14.3
		C121.1,142.5,114.8,141.4,108.7,142.7L108.7,142.7z"/>
	<path class="st0" d="M97.9,205.4c6.2,0.5,12.3-1.4,17-5.4c4.7-3.9,7.6-9.5,8.1-15.5c-6.1-0.5-12.3,1.4-17,5.4
		C101.3,193.8,98.4,199.4,97.9,205.4L97.9,205.4z"/>
	<path class="st0" d="M198.6,56.6c6.2-0.2,12-2.8,16.3-7.2c4.2-4.4,6.4-10.3,6.2-16.3c-6.2,0.2-12,2.8-16.3,7.2
		C200.6,44.6,198.4,50.5,198.6,56.6L198.6,56.6z"/>
	<path class="st0" d="M123.1,135.4c4.1,4.6,9.9,7.4,16,7.8c0.5-6-1.6-12-5.6-16.5c-4.1-4.6-9.9-7.4-16-7.8
		C117,124.9,119.1,130.8,123.1,135.4L123.1,135.4z"/>
	<path class="st0" d="M128.9,217c6.1-1,11.5-4.3,15.2-9.3c-5.1-3.5-11.3-5-17.4-4c-6.1,1-11.5,4.3-15.1,9.3
		C116.6,216.6,122.8,218,128.9,217L128.9,217z"/>
	<path class="st0" d="M164.2,197.2c-3.5-5-8.9-8.4-15-9.5c-6.1-1.1-12.4,0.2-17.5,3.7c3.6,5,8.9,8.4,15,9.5
		C152.8,201.9,159.1,200.6,164.2,197.2L164.2,197.2z"/>
	<path class="st0" d="M170.5,192.5c5.6,2.6,12,3,17.8,1c-2-5.8-6.3-10.5-11.8-13.1c-5.6-2.7-12-3-17.8-1
		C160.7,185.2,165,189.9,170.5,192.5L170.5,192.5z"/>
	<path class="st0" d="M194.3,97c5.3,3.2,11.6,4.1,17.6,2.7c-1.4-5.9-5.2-11-10.5-14.1c-5.3-3.2-11.6-4.2-17.7-2.7
		C185.3,88.8,189.1,93.8,194.3,97L194.3,97z"/>
	<path class="st0" d="M176.1,153.7c5.2-3.2,8.9-8.3,10.3-14.2c-6-1.4-12.4-0.3-17.6,2.9c-5.2,3.2-8.9,8.3-10.3,14.2
		C164.6,158,170.9,156.9,176.1,153.7L176.1,153.7z"/>
	<path class="st0" d="M209.2,23c1.2-5.9-0.1-12.1-3.6-17.1c-5.1,3.3-8.7,8.5-9.9,14.5c-1.2,5.9,0.1,12.1,3.6,17.1
		C204.5,34.3,208.1,29,209.2,23L209.2,23z"/>
	<path class="st0" d="M178.7,122.4c3.5-4.9,4.8-11.1,3.7-17c-6.1,1-11.5,4.4-15,9.5c-3.5,4.9-4.8,11.1-3.7,17
		C169.8,130.8,175.2,127.4,178.7,122.4L178.7,122.4z"/>
	<path class="st0" d="M262.7,56.1c0-6.2-2.4-12.1-6.7-16.6c-4.4,4.3-6.8,10.1-6.8,16.2c0,6.2,2.5,12.1,6.8,16.5
		C260.4,68.1,262.8,62.2,262.7,56.1L262.7,56.1z"/>
	<path class="st0" d="M262.7,17.4c0-6.2-2.4-12.1-6.7-16.6c-4.4,4.3-6.8,10.1-6.8,16.2c0,6.2,2.5,12.1,6.8,16.5
		C260.4,29.3,262.8,23.5,262.7,17.4L262.7,17.4z"/>
	<path class="st0" d="M381.6,224.4c6-1.7,12.3-0.9,17.8,2c5.4,2.9,9.3,7.9,11,13.7c-6,1.7-12.3,0.9-17.7-2
		C387.3,235.2,383.3,230.3,381.6,224.4L381.6,224.4z"/>
	<path class="st0" d="M333.2,265.4c2.1,5.7,1.7,12-1.1,17.4c-5.6-2.6-9.8-7.2-11.9-13c-2-5.7-1.7-12,1.1-17.4
		C326.8,255,331.1,259.7,333.2,265.4L333.2,265.4z"/>
	<path class="st0" d="M354.6,267.9c3.9,4.6,5.8,10.6,5.1,16.7c-6.1-0.6-11.8-3.5-15.8-8.2c-3.9-4.6-5.8-10.7-5.2-16.7
		C345,260.2,350.7,263.1,354.6,267.9L354.6,267.9z"/>
	<path class="st0" d="M375.4,251.9c-1.5-5.9-0.5-12.1,2.7-17.2c5.3,3,9.1,8.1,10.6,14c1.5,5.9,0.5,12.1-2.7,17.2
		C380.7,262.8,376.9,257.8,375.4,251.9L375.4,251.9z"/>
	<path class="st0" d="M352.7,245.9c0.2-6,3-11.7,7.5-15.7c4.2,4.4,6.4,10.4,6.2,16.5c-0.2,6-3,11.7-7.5,15.7
		C354.6,257.9,352.4,252,352.7,245.9L352.7,245.9z"/>
	<path class="st0" d="M380.6,272.4c1.7,5.8,1,12.1-2.1,17.3c-5.4-2.9-9.4-7.8-11.2-13.6c-1.7-5.8-1-12.1,2.1-17.3
		C374.8,261.6,378.8,266.5,380.6,272.4L380.6,272.4z"/>
	<path class="st0" d="M336.2,238.6c5.2,3.2,8.9,8.3,10.3,14.2c-6,1.4-12.4,0.3-17.6-2.9c-5.2-3.2-8.9-8.3-10.3-14.2
		C324.6,234.3,330.9,235.3,336.2,238.6L336.2,238.6z"/>
	<path class="st0" d="M322.2,214.2c5.8-2.1,12.2-1.9,17.9,0.7c-2.6,5.5-7.3,9.8-13.1,11.9c-5.8,2.1-12.2,1.8-17.9-0.7
		C311.7,220.5,316.4,216.2,322.2,214.2L322.2,214.2z"/>
	<path class="st0" d="M279.7,37.7c5.5,2.7,9.6,7.5,11.6,13.3c-5.9,1.9-12.3,1.4-17.8-1.4c-5.5-2.7-9.7-7.5-11.6-13.3
		C267.7,34.5,274.1,34.9,279.7,37.7L279.7,37.7z"/>
	<path class="st0" d="M272.8,62.2c5.2-3.3,11.6-4.4,17.6-3.1c-1.3,6-5,11.1-10.1,14.3c-5.2,3.3-11.5,4.4-17.6,3.1
		C264,70.5,267.6,65.3,272.8,62.2L272.8,62.2z"/>
	<path class="st0" d="M295.3,251.1c6-1.5,12.4-0.6,17.7,2.6c-3.2,5.2-8.3,9-14.3,10.4c-6,1.5-12.4,0.5-17.7-2.6
		C284.1,256.3,289.3,252.5,295.3,251.1L295.3,251.1z"/>
	<path class="st0" d="M291,75.7c5.9-1.9,12.3-1.4,17.8,1.3c-2.8,5.4-7.7,9.5-13.5,11.4c-5.9,1.9-12.3,1.4-17.8-1.3
		C280.3,81.6,285.1,77.5,291,75.7L291,75.7z"/>
	<path class="st0" d="M409.6,179.6c6.1-1.1,12.4,0.2,17.5,3.7c5.1,3.4,8.5,8.7,9.6,14.7c-6.1,1.1-12.4-0.3-17.5-3.7
		C414.1,190.9,410.7,185.6,409.6,179.6L409.6,179.6z"/>
	<path class="st0" d="M370.7,80.3c-1.4-5.9-0.3-12.1,3.1-17.1c3.4-5.1,8.6-8.7,14.7-10c1.4,5.9,0.3,12.1-3.1,17.2
		C381.9,75.5,376.7,79,370.7,80.3L370.7,80.3z"/>
	<path class="st0" d="M395.4,88.8c-4.9,3.7-11.1,5.4-17.2,4.7c0.7-6,3.9-11.5,8.7-15.2c4.9-3.7,11.1-5.4,17.2-4.7
		C403.3,79.6,400.2,85.1,395.4,88.8L395.4,88.8z"/>
	<path class="st0" d="M357.6,47.2c-1.9-5.8-1.3-12,1.7-17.3c5.5,2.7,9.6,7.5,11.5,13.4c1.8,5.8,1.2,12-1.7,17.3
		C363.6,57.8,359.5,53,357.6,47.2L357.6,47.2z"/>
	<path class="st0" d="M331,31.3c-2.8-5.4-3.2-11.7-1.2-17.4c5.8,1.8,10.7,5.9,13.5,11.4c2.8,5.4,3.2,11.7,1.2,17.4
		C338.7,40.8,333.8,36.7,331,31.3L331,31.3z"/>
	<path class="st0" d="M268.3,27.2c-0.6-6,1.3-12,5.3-16.6c4-4.7,9.7-7.6,15.8-8c0.6,6-1.3,12-5.3,16.6
		C280.2,23.8,274.5,26.7,268.3,27.2L268.3,27.2z"/>
	<path class="st0" d="M356.8,82.5c-5.2-3.2-8.8-8.4-10.1-14.4c-1.3-5.9,0-12.1,3.4-17.1c5.2,3.2,8.8,8.4,10.1,14.4
		C361.4,71.3,360.2,77.5,356.8,82.5L356.8,82.5z"/>
	<path class="st0" d="M335.8,48.3c2.2,5.6,2.1,11.9-0.5,17.4c-5.6-2.4-10.1-6.9-12.4-12.6c-2.3-5.6-2.1-11.9,0.5-17.4
		C329.1,38.1,333.5,42.6,335.8,48.3L335.8,48.3z"/>
	<path class="st0" d="M408.5,259.8c1.5,5.9,0.5,12.1-2.7,17.2c-5.3-3.1-9.1-8.1-10.7-14c-1.5-5.9-0.5-12.1,2.7-17.2
		C403.1,248.8,406.9,253.9,408.5,259.8L408.5,259.8z"/>
	<path class="st0" d="M418.3,133.9c-5.5,2.9-11.9,3.5-17.8,1.7c1.8-5.8,5.8-10.7,11.3-13.5c5.5-2.9,11.9-3.5,17.8-1.7
		C427.7,126.2,423.6,131,418.3,133.9L418.3,133.9z"/>
	<path class="st0" d="M406.2,211.6c6.1,0.4,11.9,3.2,16,7.8c4,4.5,6,10.5,5.5,16.6c-6.1-0.4-11.9-3.2-16-7.8
		C407.7,223.6,405.7,217.6,406.2,211.6L406.2,211.6z"/>
	<path class="st0" d="M406.7,166.6c9.4-8.7,24.1-8.3,33,0.9c-4.5,4.2-10.5,6.4-16.7,6.2C416.8,173.6,410.9,171,406.7,166.6
		L406.7,166.6z"/>
	<path class="st0" d="M423.2,154.2c-5.7,2.5-12.1,2.7-17.9,0.6c2.2-5.7,6.5-10.3,12.1-12.8c5.7-2.5,12.1-2.7,17.9-0.6
		C433.2,147.1,428.8,151.7,423.2,154.2L423.2,154.2z"/>
	<path class="st0" d="M400.6,119.3c-1.7-5.8-0.9-12.1,2.1-17.3c3.1-5.3,8.2-9.1,14.1-10.7c1.7,5.8,0.9,12.1-2.1,17.3
		C411.6,113.9,406.5,117.7,400.6,119.3L400.6,119.3z"/>
	<path class="st0" d="M370.3,122.2c-0.7-6,1.1-12.1,5-16.7c3.9-4.7,9.6-7.7,15.7-8.3c0.7,6-1.1,12.1-5,16.7
		C382,118.6,376.4,121.6,370.3,122.2L370.3,122.2z"/>
	<path class="st0" d="M403.3,142.7c-1.3,6-5,11.1-10.2,14.3c-5.2,3.3-11.5,4.4-17.6,3.1c1.3-6,5-11.1,10.1-14.3
		C390.9,142.5,397.2,141.4,403.3,142.7L403.3,142.7z"/>
	<path class="st0" d="M414.1,205.4c-6.2,0.5-12.3-1.4-17-5.4c-4.7-3.9-7.6-9.5-8.1-15.5c6.1-0.5,12.3,1.4,17,5.4
		C410.7,193.8,413.6,199.4,414.1,205.4L414.1,205.4z"/>
	<path class="st0" d="M313.4,56.6c-6.2-0.2-12-2.8-16.3-7.2c-4.2-4.4-6.4-10.3-6.2-16.3c6.2,0.2,12,2.8,16.3,7.2
		C311.4,44.6,313.6,50.5,313.4,56.6L313.4,56.6z"/>
	<path class="st0" d="M388.9,135.4c-4.1,4.6-9.9,7.4-16,7.8c-0.5-6,1.6-12,5.6-16.5c4.1-4.6,9.9-7.4,16-7.8
		C395,124.9,392.9,130.8,388.9,135.4L388.9,135.4z"/>
	<path class="st0" d="M383.1,217c-6.1-1-11.5-4.3-15.2-9.3c5.1-3.5,11.3-5,17.4-4c6.1,1,11.5,4.3,15.1,9.3
		C395.4,216.6,389.2,218,383.1,217L383.1,217z"/>
	<path class="st0" d="M347.8,197.2c3.5-5,8.9-8.4,15-9.5c6.1-1.1,12.4,0.2,17.5,3.7c-3.6,5-8.9,8.4-15,9.5
		C359.2,201.9,352.9,200.6,347.8,197.2L347.8,197.2z"/>
	<path class="st0" d="M341.5,192.5c-5.6,2.6-12,3-17.8,1c2-5.8,6.3-10.5,11.8-13.1c5.6-2.7,12-3,17.8-1
		C351.3,185.2,347,189.9,341.5,192.5L341.5,192.5z"/>
	<path class="st0" d="M317.7,97c-5.3,3.2-11.6,4.1-17.6,2.7c1.4-5.9,5.2-11,10.5-14.1c5.3-3.2,11.6-4.2,17.7-2.7
		C326.7,88.8,322.9,93.8,317.7,97L317.7,97z"/>
	<path class="st0" d="M335.9,153.7c-5.2-3.2-8.9-8.3-10.3-14.2c6-1.4,12.4-0.3,17.6,2.9c5.2,3.2,8.9,8.3,10.3,14.2
		C347.4,158,341.1,156.9,335.9,153.7L335.9,153.7z"/>
	<path class="st0" d="M302.8,23c-1.2-5.9,0.1-12.1,3.6-17.1c5.1,3.3,8.7,8.5,9.9,14.5c1.2,5.9-0.1,12.1-3.6,17.1
		C307.5,34.3,303.9,29,302.8,23L302.8,23z"/>
	<path class="st0" d="M333.3,122.4c-3.5-4.9-4.8-11.1-3.7-17c6.1,1,11.5,4.4,15,9.5c3.5,4.9,4.8,11.1,3.7,17
		C342.2,130.8,336.8,127.4,333.3,122.4L333.3,122.4z"/>
	<path class="st1" d="M290.9,145.4h-6.1c0-11.6-4-17.3-12.1-17.3h-9.9v73.2c0,4.8,3.2,7.3,9.7,7.4v4.3h-33.2v-4.3
		c6.5-0.1,9.7-2.5,9.7-7.4v-73.2h-9.8c-8,0-11.9,5.8-11.9,17.3h-6.1v-24.3h69.8L290.9,145.4z"/>
</g>
</svg>
