<svg xmlns="http://www.w3.org/2000/svg" width="102.43" height="105.258" viewBox="0 0 102.43 105.258">
  <g id="Group_109" data-name="Group 109" transform="translate(3 3)">
    <g id="Group_108" data-name="Group 108" transform="translate(0 5.125)" opacity="0.15">
      <path id="Path_19" data-name="Path 19" d="M1124.859,964.2l-6.424-7.392-1.417-2.114-1.085-4.575V935.476a8.344,8.344,0,0,1,8.346-8.344h75.093a8.344,8.344,0,0,1,8.347,8.344v14.646a10.2,10.2,0,0,1-2.5,6.689l-6.424,7.392" transform="translate(-1115.932 -927.132)" fill="none" stroke="#58c3d5" stroke-linecap="round" stroke-linejoin="round" stroke-width="6"/>
      <line id="Line_6" data-name="Line 6" y1="24.412" x2="24.391" transform="translate(26.719 34.704)" fill="none" stroke="#ff6ad3" stroke-linecap="round" stroke-linejoin="round" stroke-width="6"/>
      <line id="Line_7" data-name="Line 7" x2="24.392" y2="24.412" transform="translate(45.88 34.703)" fill="none" stroke="#ff6ad3" stroke-linecap="round" stroke-linejoin="round" stroke-width="6"/>
      <path id="Path_20" data-name="Path 20" d="M0,58.2H0V0" transform="translate(45.892 35.938)" fill="none" stroke="#ec515f" stroke-linecap="round" stroke-width="6"/>
    </g>
    <g id="Group_107" data-name="Group 107" transform="translate(4.644)">
      <path id="Path_18" data-name="Path 18" d="M1126.635,962.242l-6.425-7.392a10.2,10.2,0,0,1-2.5-6.689V933.516a8.344,8.344,0,0,1,8.346-8.344h75.1a8.343,8.343,0,0,1,8.344,8.344v14.646a10.2,10.2,0,0,1-2.5,6.689l-6.425,7.392" transform="translate(-1117.708 -925.172)" fill="none" stroke="#58c3d5" stroke-linecap="round" stroke-linejoin="round" stroke-width="6"/>
      <line id="Line_3" data-name="Line 3" y1="24.412" x2="24.391" transform="translate(21.489 34.704)" fill="none" stroke="#ff405a" stroke-linecap="round" stroke-linejoin="round" stroke-width="6"/>
      <line id="Line_4" data-name="Line 4" x2="24.392" y2="24.412" transform="translate(45.88 34.703)" fill="none" stroke="#ff405a" stroke-linecap="round" stroke-linejoin="round" stroke-width="6"/>
      <line id="Line_5" data-name="Line 5" y1="58.195" transform="translate(45.892 35.938)" fill="none" stroke="#ff405a" stroke-linecap="round" stroke-linejoin="round" stroke-width="6"/>
    </g>
  </g>
</svg>
