<svg xmlns="http://www.w3.org/2000/svg" width="69.397" height="79.312" viewBox="0 0 69.397 79.312">
  <path id="Path_23215" data-name="Path 23215" d="M166.893,99.564v44.612a9.919,9.919,0,0,1-9.914,9.915H145.715l9.316,5.4a4.588,4.588,0,0,1,1.948,3.5v1.84a4.134,4.134,0,0,1-4.125,4.132H111.547a4.135,4.135,0,0,1-4.132-4.132v-1.843a4.594,4.594,0,0,1,1.935-3.5l9.323-5.4H107.411a9.92,9.92,0,0,1-9.915-9.915V99.564a9.919,9.919,0,0,1,9.915-9.914h49.568a9.918,9.918,0,0,1,9.914,9.914m-4.957,0a4.958,4.958,0,0,0-4.957-4.957H107.411a4.958,4.958,0,0,0-4.958,4.957v44.612a4.958,4.958,0,0,0,4.958,4.957h49.568a4.958,4.958,0,0,0,4.957-4.957Zm-29.75,0h0a22.306,22.306,0,0,1,.005,44.612h-.011a22.306,22.306,0,1,1,0-44.612Zm11.045,58.817-7.411-4.29h-7.253l-7.416,4.29-8.784,5.084v.54h39.655v-.537Zm-11.045-19.162h0a17.349,17.349,0,0,0,.005-34.7h-.011a17.349,17.349,0,1,0,0,34.7Zm.009-27.263a2.48,2.48,0,0,1-2.478,2.478,4.96,4.96,0,0,0-4.958,4.957,2.478,2.478,0,1,1-4.957,0,9.929,9.929,0,0,1,9.915-9.914,2.48,2.48,0,0,1,2.478,2.478" transform="translate(-97.496 -89.65)" fill="#00c6d8"/>
</svg>
