<svg id="Trustt_Money_Logo" data-name="Trustt Money Logo" xmlns="http://www.w3.org/2000/svg" width="132" height="125.403" viewBox="0 0 132 125.403">
  <g id="Group_2" data-name="Group 2" transform="translate(2.635 95.37)">
    <g id="Group_1" data-name="Group 1" transform="translate(0 0)">
      <path id="Path_2" data-name="Path 2" d="M1363.282,1229.761l-.671.05a13.624,13.624,0,0,0-.277-2.139,3.673,3.673,0,0,0-.529-1.3,1.732,1.732,0,0,0-.813-.646,3.283,3.283,0,0,0-1.132-.176h-1.879v10.183q0,.772,1.51.772v.587h-4.731v-.587q1.493,0,1.494-.772V1225.55h-1.9a3.282,3.282,0,0,0-1.132.176,1.688,1.688,0,0,0-.805.646,3.781,3.781,0,0,0-.52,1.3,14.6,14.6,0,0,0-.293,2.139l-.671-.05v-5.134h12.347Z" transform="translate(-1350.935 -1224.627)" fill="#fff"/>
      <path id="Path_3" data-name="Path 3" d="M1409,1240.587a3.435,3.435,0,0,1,1.292-1.376,3.088,3.088,0,0,1,1.51-.419,2.546,2.546,0,0,1,.722.109,2.036,2.036,0,0,1,.671.344,1.787,1.787,0,0,1,.495.621,2.085,2.085,0,0,1,.193.939,1.115,1.115,0,0,1-.277.8,1.2,1.2,0,0,1-1.543.025.885.885,0,0,1-.26-.638.807.807,0,0,1,.3-.663,1.335,1.335,0,0,1,.855-.243.9.9,0,0,0-.487-.436,1.937,1.937,0,0,0-.771-.151,2.238,2.238,0,0,0-.638.1,2.118,2.118,0,0,0-.687.377,3.891,3.891,0,0,0-.7.753,6.172,6.172,0,0,0-.671,1.214v4.218q0,.753,1.678.753v.587h-4.664v-.587q1.475,0,1.476-.753v-5.875q0-.77-1.476-.77v-.553H1409Z" transform="translate(-1391.397 -1235.033)" fill="#fff"/>
      <path id="Path_4" data-name="Path 4" d="M1453.482,1246.685q0,.753,1.275.753v.57h-2.818V1246.3a4.156,4.156,0,0,1-1.308,1.258,4.284,4.284,0,0,1-.973.437,3.989,3.989,0,0,1-1.191.168,2.908,2.908,0,0,1-1.963-.562,2.485,2.485,0,0,1-.637-1.938v-4.865q0-.771-1.477-.771v-.537h2.986v6.094a2.529,2.529,0,0,0,.311,1.465,1.252,1.252,0,0,0,1.065.41,2.55,2.55,0,0,0,.94-.185,3.416,3.416,0,0,0,.88-.512,5.236,5.236,0,0,0,1.367-1.669v-4.295q0-.771-1.661-.771v-.537h3.2Z" transform="translate(-1419.348 -1235.544)" fill="#fff"/>
      <path id="Path_5" data-name="Path 5" d="M1499.221,1242.163l-.621.117a3.048,3.048,0,0,0-.982-2.072,3.349,3.349,0,0,0-2.256-.713,2.642,2.642,0,0,0-1.3.3,1.03,1.03,0,0,0-.545.973,1.06,1.06,0,0,0,.445.931,3.6,3.6,0,0,0,1.124.5q.679.184,1.459.319a7,7,0,0,1,1.46.411,2.972,2.972,0,0,1,1.125.78,2.061,2.061,0,0,1,.444,1.409,2.2,2.2,0,0,1-.813,1.845,3.818,3.818,0,0,1-2.39.637,5.915,5.915,0,0,1-1.485-.176,2.98,2.98,0,0,1-1.182-.6c-.079-.056-.166-.115-.26-.176a.494.494,0,0,0-.26-.092.206.206,0,0,0-.185.075.743.743,0,0,0-.084.26l-.117.6h-.6v-3.439l.6-.1a3.217,3.217,0,0,0,.394,1.216,3.418,3.418,0,0,0,.78.94,3.361,3.361,0,0,0,1.073.6,3.867,3.867,0,0,0,1.276.21,2.337,2.337,0,0,0,1.518-.393,1.273,1.273,0,0,0,.461-1.013,1.073,1.073,0,0,0-.26-.753,1.886,1.886,0,0,0-.688-.46,5.269,5.269,0,0,0-.973-.285q-.546-.108-1.116-.234t-1.115-.293a3.542,3.542,0,0,1-.973-.46,2.246,2.246,0,0,1-.688-.745,2.3,2.3,0,0,1-.26-1.155,2.069,2.069,0,0,1,.789-1.725,3.689,3.689,0,0,1,2.315-.619,4.578,4.578,0,0,1,1.3.2,3.419,3.419,0,0,1,1.1.52,1.812,1.812,0,0,0,.277.2.543.543,0,0,0,.277.083c.112,0,.19-.083.235-.251l.084-.587h.621Z" transform="translate(-1454.352 -1235.033)" fill="#fff"/>
      <path id="Path_6" data-name="Path 6" d="M1531.742,1232.13h2.282l-.084.973a8.189,8.189,0,0,0-1.024-.142q-.537-.042-1.174-.042v6.358q0,.755.839.755a.665.665,0,0,0,.571-.227.867.867,0,0,0,.168-.529v-1.14h.637v.973a3.491,3.491,0,0,1-.059.671,1.176,1.176,0,0,1-.243.529,1.2,1.2,0,0,1-.521.353,2.593,2.593,0,0,1-.888.126,1.986,1.986,0,0,1-1.519-.529,2.087,2.087,0,0,1-.5-1.485v-5.855h-1.493v-.587a4.932,4.932,0,0,0,.864-.134,1.45,1.45,0,0,0,.663-.359,1.731,1.731,0,0,0,.419-.7,3.684,3.684,0,0,0,.15-1.159v-.367l.906-.117Z" transform="translate(-1481.116 -1228.204)" fill="#fff"/>
      <path id="Path_7" data-name="Path 7" d="M1598.51,1225.214q-1.51,0-1.51.771v9.747q0,.772,1.51.772v.587h-4.73v-.587q1.493,0,1.493-.772v-9.579l-4.245,10.938h-1.611l-4.244-10.938v9.579q0,.772,1.493.772v.587h-3.993v-.587q1.493,0,1.493-.772v-9.747q0-.771-1.493-.771v-.587h3.892l4.111,10.887,4.109-10.887h3.725Z" transform="translate(-1520.548 -1224.627)" fill="#fff"/>
      <path id="Path_8" data-name="Path 8" d="M1655.779,1238.158a6.015,6.015,0,0,1,1.7.235,3.5,3.5,0,0,1,2.349,2.181,5.884,5.884,0,0,1,.344,2.147,5.58,5.58,0,0,1-.3,1.887,4.011,4.011,0,0,1-.88,1.451,3.86,3.86,0,0,1-1.435.931,5.469,5.469,0,0,1-1.962.327,6.072,6.072,0,0,1-1.678-.227,3.649,3.649,0,0,1-1.392-.747,3.58,3.58,0,0,1-.956-1.359,5.327,5.327,0,0,1-.353-2.063,6.33,6.33,0,0,1,.285-1.955,4.161,4.161,0,0,1,.847-1.51,3.663,3.663,0,0,1,1.417-.965A5.51,5.51,0,0,1,1655.779,1238.158Zm.009.7a3.184,3.184,0,0,0-1.363.269,2.639,2.639,0,0,0-.95.738,3.125,3.125,0,0,0-.563,1.116,5.066,5.066,0,0,0-.185,1.4,8.507,8.507,0,0,0,.21,2.064,3.459,3.459,0,0,0,.589,1.3,2.042,2.042,0,0,0,.9.671,3.331,3.331,0,0,0,1.161.192,3.207,3.207,0,0,0,1.422-.285,2.465,2.465,0,0,0,.942-.8,3.376,3.376,0,0,0,.521-1.208,6.708,6.708,0,0,0,.16-1.5,7.172,7.172,0,0,0-.219-1.937,3.3,3.3,0,0,0-.6-1.217,2,2,0,0,0-.9-.629A3.5,3.5,0,0,0,1655.788,1238.862Z" transform="translate(-1570.765 -1234.568)" fill="#fff"/>
      <path id="Path_9" data-name="Path 9" d="M1702.967,1246.157q0,.753,1.493.753v.587h-4.312v-.587q1.308,0,1.309-.753v-4.771a2.188,2.188,0,0,0-.385-1.465,1.3,1.3,0,0,0-1.007-.427,2.927,2.927,0,0,0-1.024.2,5.235,5.235,0,0,0-1.032.527,5.377,5.377,0,0,0-.906.754,4.129,4.129,0,0,0-.663.9v4.286q0,.753,1.309.753v.587h-4.294v-.587q1.475,0,1.476-.753v-5.875q0-.77-1.476-.77v-.553h2.985v1.711a7.141,7.141,0,0,1,1.686-1.317,4.363,4.363,0,0,1,2.207-.562,2.993,2.993,0,0,1,1.921.569,2.327,2.327,0,0,1,.713,1.925Z" transform="translate(-1601.671 -1235.033)" fill="#fff"/>
      <path id="Path_10" data-name="Path 10" d="M1745.357,1242.486a5.478,5.478,0,0,0,.721,3.02,2.379,2.379,0,0,0,2.131,1.107,3.672,3.672,0,0,0,1.938-.511,2.788,2.788,0,0,0,1.183-1.77l.671.252a4.867,4.867,0,0,1-.461,1.032,3.381,3.381,0,0,1-.747.872,3.544,3.544,0,0,1-1.091.6,4.476,4.476,0,0,1-1.493.227,6.17,6.17,0,0,1-1.552-.2,3.573,3.573,0,0,1-1.4-.713,3.735,3.735,0,0,1-1.015-1.4,5.56,5.56,0,0,1-.395-2.248,5.5,5.5,0,0,1,.3-1.854,4.169,4.169,0,0,1,.873-1.459,3.868,3.868,0,0,1,1.4-.948,5.005,5.005,0,0,1,1.887-.335,3.839,3.839,0,0,1,3,1.133,4.6,4.6,0,0,1,1.023,3.2Zm5.4-.638a3.336,3.336,0,0,0-.663-2.172,2.279,2.279,0,0,0-1.871-.814,3.118,3.118,0,0,0-1.022.168,2.481,2.481,0,0,0-.873.52,2.716,2.716,0,0,0-.637.923,4.294,4.294,0,0,0-.319,1.376Z" transform="translate(-1638.461 -1234.568)" fill="#fff"/>
      <path id="Path_11" data-name="Path 11" d="M1794.216,1240.023a2.115,2.115,0,0,0-.864.142.871.871,0,0,0-.445.428l-3.926,9.26a7.306,7.306,0,0,1-.437.864,2.3,2.3,0,0,1-.5.6,1.945,1.945,0,0,1-.663.353,3.034,3.034,0,0,1-.9.117,2.726,2.726,0,0,1-1.821-.562,1.747,1.747,0,0,1-.663-1.384,1.481,1.481,0,0,1,.051-.377,1.094,1.094,0,0,1,.16-.352.8.8,0,0,1,.3-.26,1.02,1.02,0,0,1,.478-.1.925.925,0,0,1,1.041.923.815.815,0,0,1-.243.637,1.242,1.242,0,0,1-.629.285,1.226,1.226,0,0,0,.462.427,2.113,2.113,0,0,0,1,.176,1.364,1.364,0,0,0,.873-.344,2.682,2.682,0,0,0,.722-1.116l.419-1.074-3.389-8.052q-.252-.587-1.225-.587v-.537h4.446v.537h-1.09c-.335,0-.5.1-.5.3a.74.74,0,0,0,.05.285l2.55,6.274,2.6-6.14a.591.591,0,0,0,.051-.235q0-.486-.789-.486h-.688v-.537h3.574Z" transform="translate(-1667.96 -1235.544)" fill="#fff"/>
    </g>
  </g>
  <g id="Group_134" data-name="Group 134" transform="translate(21.079 0)">
    <path id="Path_1" data-name="Path 1" d="M1467.914,872.642a2.344,2.344,0,1,0-1.7,3.958A5.515,5.515,0,0,0,1467.914,872.642Zm-1.686,6.387a5.479,5.479,0,1,0,1.686,3.968A5.482,5.482,0,0,0,1466.228,879.028Zm27.714,4.892a5.437,5.437,0,0,0,.408-4.275,5.624,5.624,0,0,0-2.827-3.293,5.419,5.419,0,0,0-.41,4.278A5.6,5.6,0,0,0,1493.942,883.92Zm7.758,14.469a5.684,5.684,0,0,0,3.476-2.638,5.464,5.464,0,0,0,.525-4.263,5.683,5.683,0,0,0-3.477,2.637A5.431,5.431,0,0,0,1501.7,898.389Zm-7.374-9.607a5.7,5.7,0,0,0,3.614-2.454,5.465,5.465,0,0,0,.755-4.231,5.693,5.693,0,0,0-3.616,2.456A5.437,5.437,0,0,0,1494.325,888.783Zm-3.425.537a5.441,5.441,0,0,0,.838-4.212,5.586,5.586,0,0,0-2.482-3.547,5.421,5.421,0,0,0-.841,4.214A5.542,5.542,0,0,0,1490.9,889.32ZM1473,873.7a5.489,5.489,0,0,0,1.306-4.1,5.752,5.752,0,0,0-3.909,1.983,5.454,5.454,0,0,0-1.305,4.1A5.767,5.767,0,0,0,1473,873.7Zm14.882,5.81a5.429,5.429,0,0,0-.3-4.283,5.684,5.684,0,0,0-3.333-2.806,5.41,5.41,0,0,0,.3,4.283A5.657,5.657,0,0,0,1487.881,879.505Zm-7.682,3.427a5.457,5.457,0,0,0-1.527-4.028,5.773,5.773,0,0,0-4.01-1.782,5.487,5.487,0,0,0,1.527,4.026A5.77,5.77,0,0,0,1480.2,882.933Zm21.472,19.486a5.847,5.847,0,0,0,4.386-.425,5.627,5.627,0,0,0,2.78-3.334,5.847,5.847,0,0,0-4.388.423A5.6,5.6,0,0,0,1501.671,902.419Zm-16.05-17.243a5.417,5.417,0,0,0,.114-4.291,5.647,5.647,0,0,0-3.046-3.1,5.411,5.411,0,0,0-.115,4.293A5.616,5.616,0,0,0,1485.621,885.176Zm-5.612-6.935a5.452,5.452,0,0,0,.892-4.205,5.583,5.583,0,0,0-2.433-3.577,5.444,5.444,0,0,0-.9,4.206A5.544,5.544,0,0,0,1480.009,878.241Zm16.16,13.787a5.819,5.819,0,0,0,4.245-1.151,5.555,5.555,0,0,0,2.155-3.748,5.828,5.828,0,0,0-4.249,1.148A5.533,5.533,0,0,0,1496.169,892.028Zm-9.048,24.433a5.637,5.637,0,0,0,2.916-3.218,5.829,5.829,0,0,0-4.4.246,5.607,5.607,0,0,0-2.917,3.22A5.872,5.872,0,0,0,1487.121,916.461Zm5.875,2.052a5.741,5.741,0,0,0,3.7-2.339,5.824,5.824,0,0,0-4.309-.911,5.722,5.722,0,0,0-3.7,2.341A5.848,5.848,0,0,0,1493,918.512Zm3.26-18.317a5.471,5.471,0,0,0-1.381,4.078,5.764,5.764,0,0,0,3.946-1.914,5.489,5.489,0,0,0,1.382-4.078A5.76,5.76,0,0,0,1496.256,900.2Zm-16.785-10.119a5.553,5.553,0,0,0-2.579,3.482,5.839,5.839,0,0,0,4.353-.669,5.56,5.56,0,0,0,2.579-3.482A5.825,5.825,0,0,0,1479.472,890.076Zm26.4,13.912a5.628,5.628,0,0,0-3,3.152,5.869,5.869,0,0,0,4.4-.143,5.652,5.652,0,0,0,3-3.152A5.863,5.863,0,0,0,1505.874,903.988Zm-20.142,2.9a5.828,5.828,0,0,0,4.343.718,5.559,5.559,0,0,0-2.535-3.513,5.82,5.82,0,0,0-4.348-.717A5.605,5.605,0,0,0,1485.732,906.89Zm3.067-5.4a5.433,5.433,0,0,0-.908-4.2,5.716,5.716,0,0,0-3.7-2.331,5.459,5.459,0,0,0,.909,4.2A5.7,5.7,0,0,0,1488.8,901.485Zm16.236,18.157a5.511,5.511,0,0,0-1.988-3.834,5.825,5.825,0,0,0-4.194-1.322,5.515,5.515,0,0,0,1.987,3.832A5.838,5.838,0,0,0,1505.035,919.643Zm6.3-9.352a5.838,5.838,0,1,0-4.118,1.536A5.82,5.82,0,0,0,1511.331,910.291ZM1495.453,895a5.457,5.457,0,0,0-1.23,4.122,5.743,5.743,0,0,0,3.87-2.049,5.486,5.486,0,0,0,1.232-4.125A5.739,5.739,0,0,0,1495.453,895Zm.067,13.467a5.818,5.818,0,0,0,4.335-.758,5.583,5.583,0,0,0,2.505-3.536,5.841,5.841,0,0,0-4.34.761A5.55,5.55,0,0,0,1495.52,908.463Zm1.865,14.037a5.859,5.859,0,0,0,4.294-.976,5.723,5.723,0,0,0-3.737-2.282,5.818,5.818,0,0,0-4.294.976A5.745,5.745,0,0,0,1497.385,922.5Zm-25.492-44.218a5.841,5.841,0,0,0-4.4-.335,5.61,5.61,0,0,0,2.853,3.273,5.836,5.836,0,0,0,4.394.335A5.586,5.586,0,0,0,1471.893,878.282Zm10.263,52.952a5.428,5.428,0,0,0-.266,4.286,5.613,5.613,0,0,0,2.941,3.2,5.417,5.417,0,0,0,.262-4.285A5.637,5.637,0,0,0,1482.156,931.234Zm1.867-.631a5.858,5.858,0,0,0,4.348.713,5.567,5.567,0,0,0-2.54-3.51,5.829,5.829,0,0,0-4.35-.712A5.6,5.6,0,0,0,1484.023,930.6Zm5.879-1.4a2.345,2.345,0,1,0,1.712-3.958A5.5,5.5,0,0,0,1489.9,929.2Zm-3.414,3.813a5.485,5.485,0,0,0,1.269,4.115,5.783,5.783,0,0,0,3.891,2.019,5.452,5.452,0,0,0-1.269-4.113A5.755,5.755,0,0,0,1486.489,933.012Zm.293-11.05a5.844,5.844,0,0,0-4.407-.172,5.661,5.661,0,0,0-3.228,2.927,5.877,5.877,0,0,0,4.406.173A5.685,5.685,0,0,0,1486.782,921.962Zm-12.241-38.415a5.819,5.819,0,0,0-4.338.762,5.549,5.549,0,0,0-2.5,3.537,5.857,5.857,0,0,0,4.338-.764A5.557,5.557,0,0,0,1474.54,883.547Zm1.2,7.222a5.645,5.645,0,0,0,3.334-2.8,5.826,5.826,0,0,0-4.393-.331,5.659,5.659,0,0,0-3.336,2.807A5.851,5.851,0,0,0,1475.743,890.768Zm-.013,40.137a5.692,5.692,0,0,0-3.53,2.574,5.865,5.865,0,0,0,4.363.632,5.741,5.741,0,0,0,3.528-2.575A5.826,5.826,0,0,0,1475.73,930.906Zm32.508-16.711a5.825,5.825,0,0,0-4.307-.917,5.565,5.565,0,0,0,2.36,3.625,5.869,5.869,0,0,0,4.308.92A5.546,5.546,0,0,0,1508.238,914.195Zm-5.156,6.961a5.483,5.483,0,0,0,1.366,4.083,5.783,5.783,0,0,0,3.938,1.932,5.453,5.453,0,0,0-1.364-4.083A5.764,5.764,0,0,0,1503.082,921.155Zm-9.055,11.644a5.455,5.455,0,0,0-.511,4.269,5.614,5.614,0,0,0,2.751,3.356,5.44,5.44,0,0,0,.51-4.267A5.591,5.591,0,0,0,1494.027,932.8Zm7.386-7.978a5.846,5.846,0,0,0-4.38-.5,5.6,5.6,0,0,0,2.717,3.381,5.867,5.867,0,0,0,4.376.5A5.584,5.584,0,0,0,1501.413,924.821Zm-5.254,2.026a5.452,5.452,0,0,0-.67,4.245,5.581,5.581,0,0,0,2.618,3.452,5.424,5.424,0,0,0,.674-4.243A5.564,5.564,0,0,0,1496.158,926.847Zm4.856,2.75a5.453,5.453,0,0,0-.666,4.245,5.614,5.614,0,0,0,2.625,3.451,5.427,5.427,0,0,0,.667-4.247A5.569,5.569,0,0,0,1501.015,929.6Zm-65.592-5.275a5.847,5.847,0,0,0-4.38.5,5.589,5.589,0,0,0-2.714,3.383,5.868,5.868,0,0,0,4.377-.5A5.6,5.6,0,0,0,1435.423,924.322Zm11.938,10.113a5.416,5.416,0,0,0,.264,4.285,5.617,5.617,0,0,0,2.94-3.2,5.425,5.425,0,0,0-.267-4.286A5.636,5.636,0,0,0,1447.361,934.436Zm-4.807-5.237a2.344,2.344,0,1,0-1.677,3.968A5.508,5.508,0,0,0,1442.554,929.2Zm-.479,5.834a5.454,5.454,0,0,0-1.268,4.113,5.783,5.783,0,0,0,3.891-2.019,5.49,5.49,0,0,0,1.27-4.115A5.76,5.76,0,0,0,1442.074,935.033Zm-5.108-3.94a5.452,5.452,0,0,0-.67-4.245,5.559,5.559,0,0,0-2.621,3.454,5.423,5.423,0,0,0,.673,4.243A5.583,5.583,0,0,0,1436.967,931.092Zm-1.288,5.065a5.435,5.435,0,0,0,.51,4.267,5.612,5.612,0,0,0,2.751-3.356,5.456,5.456,0,0,0-.51-4.269A5.587,5.587,0,0,0,1435.678,936.158Zm10.945-8.351a5.569,5.569,0,0,0-2.538,3.51,5.857,5.857,0,0,0,4.348-.713,5.606,5.606,0,0,0,2.542-3.509A5.834,5.834,0,0,0,1446.623,927.806Zm3.458-6.017a5.842,5.842,0,0,0-4.407.172,5.68,5.68,0,0,0,3.228,2.927,5.879,5.879,0,0,0,4.406-.173A5.667,5.667,0,0,0,1450.081,921.79Zm10.48-43.508a5.586,5.586,0,0,0-2.849,3.273,5.833,5.833,0,0,0,4.393-.335,5.605,5.605,0,0,0,2.853-3.273A5.842,5.842,0,0,0,1460.562,878.282Zm1.692,6.027a5.82,5.82,0,0,0-4.338-.762,5.557,5.557,0,0,0,2.5,3.535,5.858,5.858,0,0,0,4.338.764A5.544,5.544,0,0,0,1462.253,884.308Zm-5.529,46.6a5.823,5.823,0,0,0-4.36.63,5.739,5.739,0,0,0,3.529,2.575,5.862,5.862,0,0,0,4.362-.632A5.689,5.689,0,0,0,1456.724,930.906Zm1.048-43.272a5.829,5.829,0,0,0-4.395.331,5.652,5.652,0,0,0,3.334,2.8,5.853,5.853,0,0,0,4.4-.328A5.655,5.655,0,0,0,1457.772,887.634Zm-29.248,25.644a5.825,5.825,0,0,0-4.306.917,5.54,5.54,0,0,0-2.361,3.628,5.872,5.872,0,0,0,4.308-.92A5.567,5.567,0,0,0,1428.524,913.277Zm9.6-24.495a5.429,5.429,0,0,0-.752-4.229,5.692,5.692,0,0,0-3.615-2.456,5.466,5.466,0,0,0,.755,4.231A5.7,5.7,0,0,0,1438.129,888.783Zm-6.088,2.094a5.817,5.817,0,0,0,4.244,1.151,5.531,5.531,0,0,0-2.15-3.751,5.827,5.827,0,0,0-4.248-1.148A5.541,5.541,0,0,0,1432.041,890.877Zm9.3-10.247a5.425,5.425,0,0,0-.41-4.278,5.621,5.621,0,0,0-2.827,3.293,5.442,5.442,0,0,0,.407,4.275A5.6,5.6,0,0,0,1441.343,880.63Zm6.569-3.93a5.408,5.408,0,0,0,.3-4.283,5.689,5.689,0,0,0-3.333,2.806,5.427,5.427,0,0,0-.3,4.283A5.659,5.659,0,0,0,1447.912,876.7Zm15.452-1.019a5.453,5.453,0,0,0-1.305-4.1,5.75,5.75,0,0,0-3.908-1.983,5.49,5.49,0,0,0,1.306,4.1A5.766,5.766,0,0,0,1463.364,875.68Zm-21.81,13.64a5.546,5.546,0,0,0,2.486-3.545,5.423,5.423,0,0,0-.841-4.214,5.581,5.581,0,0,0-2.482,3.547A5.44,5.44,0,0,0,1441.554,889.32Zm5.166-8.435a5.418,5.418,0,0,0,.114,4.291,5.616,5.616,0,0,0,3.048-3.1,5.417,5.417,0,0,0-.115-4.293A5.652,5.652,0,0,0,1446.72,880.885Zm-17.906,52.162a5.432,5.432,0,0,0,.667,4.247,5.616,5.616,0,0,0,2.626-3.451,5.459,5.459,0,0,0-.667-4.245A5.567,5.567,0,0,0,1428.814,933.047Zm-2.416-31.053a5.847,5.847,0,0,0,4.385.425,5.6,5.6,0,0,0-2.778-3.335,5.843,5.843,0,0,0-4.387-.423A5.619,5.619,0,0,0,1426.4,901.994Zm2.975,19.162a5.766,5.766,0,0,0-3.939,1.931,5.455,5.455,0,0,0-1.364,4.083,5.785,5.785,0,0,0,3.938-1.932A5.487,5.487,0,0,0,1429.373,921.155Zm-.114-11.093a5.84,5.84,0,1,0-4.017,1.765A5.794,5.794,0,0,0,1429.259,910.062ZM1425.174,907a5.866,5.866,0,0,0,4.4.143,5.624,5.624,0,0,0-2.994-3.152,5.866,5.866,0,0,0-4.407-.143A5.654,5.654,0,0,0,1425.174,907Zm5.582-8.608a5.435,5.435,0,0,0-.523-4.264,5.682,5.682,0,0,0-3.477-2.637,5.455,5.455,0,0,0,.525,4.263A5.679,5.679,0,0,0,1430.756,898.389Zm7.477.729A5.458,5.458,0,0,0,1437,895a5.735,5.735,0,0,0-3.872-2.052,5.486,5.486,0,0,0,1.232,4.125A5.743,5.743,0,0,0,1438.232,899.118Zm-8.138,5.051a5.581,5.581,0,0,0,2.506,3.536,5.818,5.818,0,0,0,4.336.758,5.548,5.548,0,0,0-2.5-3.532A5.84,5.84,0,0,0,1430.094,904.169Zm-2.674,15.474a5.837,5.837,0,0,0,4.194-1.325,5.509,5.509,0,0,0,1.987-3.832,5.826,5.826,0,0,0-4.193,1.322A5.517,5.517,0,0,0,1427.42,919.643Zm24.836-36.71a5.773,5.773,0,0,0,4.011-1.784,5.491,5.491,0,0,0,1.526-4.026,5.78,5.78,0,0,0-4.012,1.782A5.459,5.459,0,0,0,1452.256,882.933Zm-18.621,19.426a5.763,5.763,0,0,0,3.946,1.914,5.471,5.471,0,0,0-1.381-4.078,5.759,5.759,0,0,0-3.947-1.915A5.487,5.487,0,0,0,1433.635,902.359Zm1.435,20.141a5.742,5.742,0,0,0,3.737-2.282,5.821,5.821,0,0,0-4.3-.976,5.723,5.723,0,0,0-3.735,2.282A5.859,5.859,0,0,0,1435.07,922.5Zm8.7-4.9a5.718,5.718,0,0,0-3.7-2.341,5.825,5.825,0,0,0-4.31.911,5.744,5.744,0,0,0,3.7,2.339A5.845,5.845,0,0,0,1443.766,917.6Zm1.568-1.142a5.87,5.87,0,0,0,4.4.249,5.6,5.6,0,0,0-2.916-3.22,5.832,5.832,0,0,0-4.4-.246A5.638,5.638,0,0,0,1445.334,916.461Zm5.875-23.572a5.841,5.841,0,0,0,4.353.669,5.55,5.55,0,0,0-2.579-3.482,5.824,5.824,0,0,0-4.353-.669A5.564,5.564,0,0,0,1451.209,892.889Zm-4.487,14a5.609,5.609,0,0,0,2.541-3.511,5.82,5.82,0,0,0-4.348.717,5.558,5.558,0,0,0-2.535,3.513A5.827,5.827,0,0,0,1446.723,906.89Zm8.161-32.225a5.448,5.448,0,0,0-.9-4.206,5.584,5.584,0,0,0-2.435,3.577,5.455,5.455,0,0,0,.892,4.205A5.547,5.547,0,0,0,1454.884,874.665Zm-7.526,24.49a5.459,5.459,0,0,0,.909-4.2,5.713,5.713,0,0,0-3.7,2.331,5.436,5.436,0,0,0-.909,4.2A5.709,5.709,0,0,0,1447.358,899.155Z" transform="translate(-1421.123 -868.675)" fill="#fff"/>
    <path id="Path_12" data-name="Path 12" d="M1523.726,953.41a27.965,27.965,0,0,0-8.137-1.944,23.211,23.211,0,0,1-.065-18.2,1.25,1.25,0,0,0-.713-1.646,1.316,1.316,0,0,0-1.7.69,25.511,25.511,0,0,0-1.047,3,16.8,16.8,0,0,0-14.129-9.242,1.263,1.263,0,1,0-.156,2.521,13.94,13.94,0,0,1,13.312,13.709,25.5,25.5,0,0,0,1.655,9.059,28.086,28.086,0,0,0-9.915,1.925,23.255,23.255,0,0,1,.243-13.313,1.254,1.254,0,0,0-.859-1.58,1.313,1.313,0,0,0-1.632.833c-.04.125-.075.25-.112.376a21.435,21.435,0,0,1-12.486-9.021,1.361,1.361,0,0,0-1.407-.543,1.274,1.274,0,0,0-.8.543,21.428,21.428,0,0,1-12.484,9.021c-.038-.125-.072-.25-.112-.374a1.31,1.31,0,0,0-1.631-.833,1.254,1.254,0,0,0-.859,1.58,23.252,23.252,0,0,1,.243,13.31,28.1,28.1,0,0,0-9.916-1.925,25.511,25.511,0,0,0,1.654-9.059,13.941,13.941,0,0,1,13.312-13.709,1.275,1.275,0,0,0,1.223-1.334,1.291,1.291,0,0,0-1.38-1.186,16.794,16.794,0,0,0-14.128,9.242,25.91,25.91,0,0,0-1.046-3,1.318,1.318,0,0,0-1.7-.69,1.249,1.249,0,0,0-.712,1.646,23.211,23.211,0,0,1-.066,18.2,27.956,27.956,0,0,0-8.136,1.944,1.248,1.248,0,0,0-.7,1.653,1.319,1.319,0,0,0,1.705.677,25.471,25.471,0,0,1,9.609-1.859,25.214,25.214,0,0,1,18.758,8.273,17.593,17.593,0,0,0-8.5-2.177,17.382,17.382,0,0,0-13.644,6.466,1.24,1.24,0,0,0,.229,1.773,1.336,1.336,0,0,0,1.83-.22,14.877,14.877,0,0,1,25.572,4.436c.174.709.318,1.428.427,2.16a12.7,12.7,0,0,0-11.3-6.786,1.264,1.264,0,1,0,0,2.527,9.9,9.9,0,0,1,10.04,9.728,9.541,9.541,0,0,1-2.677,6.6,14.857,14.857,0,0,1-10.476,4.277,1.264,1.264,0,1,0,0,2.526,17.528,17.528,0,0,0,11.049-3.882,1.285,1.285,0,0,0,.181-.123,12.394,12.394,0,0,0,.925-.833,24.219,24.219,0,0,1-4.846,6.543,1.24,1.24,0,0,0-.006,1.788,1.338,1.338,0,0,0,1.845,0,26.442,26.442,0,0,0,6.828-10.8,26.434,26.434,0,0,0,6.827,10.8,1.337,1.337,0,0,0,1.845,0,1.239,1.239,0,0,0-.005-1.788,24.209,24.209,0,0,1-4.845-6.542c.292.289.6.569.923.832a1.39,1.39,0,0,0,.18.123,17.528,17.528,0,0,0,11.05,3.883,1.264,1.264,0,1,0,0-2.526,14.849,14.849,0,0,1-10.485-4.287,9.536,9.536,0,0,1-2.668-6.589,9.9,9.9,0,0,1,10.04-9.728,1.264,1.264,0,1,0,0-2.527,12.7,12.7,0,0,0-11.3,6.784c.109-.731.252-1.45.427-2.157A14.876,14.876,0,0,1,1514.44,968a1.337,1.337,0,0,0,1.83.22,1.239,1.239,0,0,0,.229-1.773,17.381,17.381,0,0,0-13.644-6.466,17.6,17.6,0,0,0-8.5,2.177,25.214,25.214,0,0,1,18.757-8.272,25.471,25.471,0,0,1,9.609,1.859,1.317,1.317,0,0,0,1.7-.677A1.248,1.248,0,0,0,1523.726,953.41Zm-28.237-6.395h-1.515q0-4.274-2.98-4.274h-2.451V960.8q0,1.787,2.4,1.818v1.053h-8.2v-1.053q2.4-.031,2.4-1.818V942.742h-2.421q-2.946,0-2.945,4.274h-1.514v-6h17.217Z" transform="translate(-1441.235 -910.842)" fill="#fff"/>
  </g>
  <text id="In_Partnership_with_trust" data-name="In Partnership with trust" transform="translate(0 121.403)" fill="#fff" font-size="13" font-family="SourceSansPro-Regular, Source Sans Pro"><tspan x="0" y="0">In Partnership with trust</tspan></text>
</svg>
